<svg id="Capa_1" data-name="Capa 1" xmlns="http://www.w3.org/2000/svg" viewBox="0 0 649.83 911.68"><defs><style>.cls-1{opacity:0.2;}.cls-2{fill:#fff;stroke:#fff;stroke-linecap:round;stroke-linejoin:round;stroke-width:15.86px;}.cls-3{fill:#3e2668;}</style></defs><g class="cls-1"><path class="cls-2" d="M603.71,331.75c.4.38.79.76,1.13,1.15C604.84,332.9,604.44,332.48,603.71,331.75Z"/><path class="cls-2" d="M633.39,483.73c0-17.86-8-54.31-8-54.31,13.13,17.92,16.52,32.36,16.52,32.36-3-33.41-16.37-67.18-22.3-80.78-.7-7.32-5-33.95-31.11-57.39,0,0,9.83,3.15,15.22,8.14-5.58-5.59-31.3-30.73-57.08-45.59,0,0,24.93,7.81,33.24,16.36,0,0-20.65-20.88-41.37-28.63,0,0,14.14-.16,28,11.82,0,0-18.39-20.82-27.34-29-2.21-11.62-2.41-39.6-2.41-39.6-1-22.34-9.79-59.67-9.79-59.67.82,3.49,9.56,16.14,9.56,16.14-2.78-5.12-10.33-39.58-10.33-39.58C525.32,123.66,499,78.39,499,78.39c-25.2-49.23-48.46-70-48.46-70-13.31-5.28-27,39.41-27,39.41-.8,12.27-22.46,52-22.46,52-6.68,7.35-39.5,55.48-39.5,55.48-10.38,14-37.95,17.3-37.95,17.3-16.22-5.78-32.06-2.08-41.6,1.46-4.34,0-7.41.05-7.41.05-17.88-6.83-43.76,8.17-43.76,8.17C224.06,187,209,190,209,190c-19.43-2.27-33.41-21.57-33.41-21.57l-.42.43c-3.71-6.29-19-30.11-43.87-41.5,0,0-22-8.51-47.39-31.94,0,0-27.91-33.89-45-35.13,0,0-15.69,4.73-14.83,30.78,0,0-8.12,46-3.1,67.41,0,0-6.38,80.26,12.27,153.08,0,0,8.26,37.44-6.65,90.3,0,0-16.12,34.23-18.68,48,0,0,14.85-6.11,23.19-8.59l3-2.3A135.91,135.91,0,0,0,9.46,493.27S29.77,465.67,37,456.1c0,0-15.22,35.86-16.63,43.28a80,80,0,0,1,20.17-18.12S26.35,521.6,24.39,553.57c0,0,10.87-30.91,27.43-44.24,0,0-19.13,49.38-15.73,84,0,0,10.2-23.66,15.7-30.46,0,0-1.83,35.87,0,53.56,0,0,18.64-41.39,24.53-49.86,0,0-4.69,53.87-1.23,72,0,0,8.22-15.32,15.43-24.89,0,0,2.83,22.18,5.5,43.61,0,0,16.7-22.82,24.65-32.57,0,0-6,31.35-6,44.74,0,0,12-16.19,17.15-27.65a289,289,0,0,1-4.47,38.07s14.51-25.46,16.62-29.89c0,0-2,45.35-1.27,61.73,0,0,11-40.38,21.64-55.48,0,0,2.79,12,2.25,30.45a105.73,105.73,0,0,0-4,10.38s-5.86,10.83-9.41,15.86c0,0,26.33-10.9,31.51-17.89,0,0-2,11.5-12.37,23.38,0,0,11.39,1.53,21.26-3.41,0,0-10.55,17.7-12.85,30.31,0,0,14.53-9.7,21.91-14.06,0,0-8.73,12-10.67,17.21,0,0,19-6.55,24.39-5.72,0,0-9.44,18-10.38,22.91,0,0,19.82-7.28,33.08-6.71,0,0-5.95,17.15-5.93,24,0,0,12.48-5,22.73-10.58l.95,19.73s5.45-8.1,5.74-11.32c0,0,5.93,27.49,10.14,36.48,0,0,2.7-15.34,4.19-15.69,0,0,1.45,19.61-3.1,33.8,0,0,13.47-5.25,23.26-21.73a288.19,288.19,0,0,1-5.23,35.89s8.95-2.1,20.09-17.32c0,0-2,18.33-7.49,28.54,0,0,17.75-9.41,20.91-13.83,0,0-1.91,20.93-2.09,24.64,0,0,8.4-6.69,9.93-9.15,0,0-1.1,15.48-2.12,17.82,0,0,9.78-7.54,12.07-11.23,0,0-1.36,16.6-2.19,22,0,0,10.31-9.77,12.72-13,0,0,1.42,12.79,0,20,0,0,10.29-16.59,12.26-23.88,0,0,2.35,16.77.62,25.06,0,0,10.11-12.87,15.71-22.59,0,0-1.83,14.61-2.42,21,0,0,14.32-12.82,18.14-19,0,0-4.82,15.31-8.78,23.06,0,0,14.79-9.88,25.05-17.28l-12.24,19.27C427.53,892.22,453.07,850,453.07,850c3,12.7-9.72,29.06-9.72,29.06,49.64-36.84,45.33-85.45,45.33-85.45,5.52,16.82-1.57,43.69-1.57,43.69,23.34-31.47,25.32-103.61,25.32-103.61C516.2,743,516,772.23,516,772.23c13.77-46,15-75.73,12.86-93.92l8.45,10.16c13.59-26,25.84-88,25.84-88,3.9,13.26,3.84,29.82,3.84,29.82C580.23,613,582,553.53,582,553.53c10.43,24.34,4,44,4,44,19.12-22.6,11.25-69.59,11.25-69.59,1.75,7.47,5.3,19.24,5.3,19.24,1.84-5.27,1.76-17.68,1.33-27.63,5.52,15.25,9.56,29.27,9.56,29.27,5.14-20.63,4.37-53,4.37-53,4.8,2.55,9.91,17.63,9.91,17.63,1.51-18.2-7.29-44.5-7.29-44.5C624.88,472.07,633.39,483.73,633.39,483.73Z"/><path class="cls-3" d="M421.62,403.59s18.58-40.27-24.23-39.86c0,0-16.5-3.13-21.14,3.21,0,0-16,2.87-19.87,1.16,0,0-24.36-3.05-33.07,27,0,0-6.26,26,18.67,38.28,0,0,18.92,3.44,26.17,4.1,0,0-14.7-12.3-22.47-15.2,0,0-11.11-3.7-12.85-24.56,0,0-1.44-16.2,22.23-19.39,0,0,16.95-1.61,29.34-9.24,0,0,19.93-2.32,24.85,5.2,0,0-.09,6.32-7.87,3.41,0,0-11.63-5.93-15.32,5.18,0,0-7.73,7.32-21.7,8.23,0,0-20.46.08-17.09,11.1,0,0-1.06,8.91,7.76,16.3,0,0,17.07,15.68,18.12,20.16L410.56,437S418.21,405.85,421.62,403.59Z"/><path class="cls-3" d="M230.47,350.86s9.43-.11,5.39-3.89c0,0-15.71-11-42.17-16.36,0,0,42.36,3.72,48.16,21.78,0,0,13.18-2,16.19,4.08,0,0,3.54,3.9,7.14,3.58,0,0,2.78-3.81-6.43-9.52,0,0-11.94-6.13-14.14-8.76,0,0,11.1,4.75,18.27,6.22,0,0,14,6.15,17.55,12.16A22.11,22.11,0,0,0,294.07,369S308.41,372,307,366c0,0-7.34-15.61-10.53-18l13.41-1,3.55,19.64-6.85,11.06-35.07-1.75s-8.42-9.05-26.66-8.45c0,0-10.07,1.84-22.64,13.19l-34.78,3.95s-7.52-3-12.55,2.42c0,0-19.15,3.44-23,7,0,0-26.14,7.18-36.71.21,0,0,13,1.68,24.74-4.23,0,0-13.08-4.28-24.29-.6,0,0,2.55-4.8,23.24-3.88,0,0-2.63-6.73-17.15-6,0,0-11.71,3.79-14,2.77,0,0,5.48-1.29,10.89-7.28,0,0,2.94-5.42,19.07-6,0,0,12.84,3.29,21.23-10.23l12.26.8a20.47,20.47,0,0,0-6.62,3.13s30.83-5.13,39.88-4.63c0,0-36.81,6.53-51.42,13.64,0,0,10.86,3.75,26.55-1,0,0-12.35,5.52-21.78,5.63,0,0-7.85,2.37-8.52,6.2,0,0,12.82-3.53,17.53-3.58,0,0,10.16.76,18.13-1.1,0,0,17.3-4.59,20.73-10.12C205.55,367.73,223.68,348.78,230.47,350.86Z"/><path class="cls-3" d="M334.55,331.18s-11-31-44.51-59.92c0,0,17.7,10.55,34,33,0,0-1.63-15.9-19.33-26.45,0,0,14.6,1.83,37.53,28,0,0,4.72-9-7.12-21.43,0,0-31.42-31-36.71-33.4,0,0,13.72,2.55,37.91,27.34,0,0,8.29-7.2,3.27-19.67,0,0-7.46-16.11-11.2-23.11,0,0-5.59-8.14-7.34-15.6,0,0-5.6-23.89-39.23-30.71A46.4,46.4,0,0,1,294,205.22s-17.53-5.34-21.34-8.12c0,0-13.28-7.39-20-6.87a30.06,30.06,0,0,0-18.92,4.44s7.79,1.85,13.76.45c0,0-14.73,6.6-28.07,3.43,0,0,3.86,7.5,4.56,10.48,0,0-10.85-12.68-22.27-12.1l-15-5.92L172.2,171.82l3.4-3.42s14,19.3,33.41,21.57c0,0,15.05-3,21.82-7.74,0,0,25.88-15,43.76-8.17,0,0,32.38-.76,35.42,3.25,0,0,18,21,24.92,25.66,0,0-14.92-5.43-18.34-8.83,0,0,20.47,24.61,25,37.2,0,0-8.19-8.06-13.31-14.21,0,0,12.48,19.65,18,25.19,0,0,10.46,22.22,10.81,32.65,0,0,8.18-25.55,22.44-25.22,0,0-13.44,3.15-17.65,36.69,0,0-7.31,33.75,1.9,39.46l5.3,2.44,7.86,22.31s-14.34-11.87-23.36-5.55c0,0-9.93,9.15-8.88,13.63,0,0-1.05,4.45-8.49,4.09l-8.78-1.61s-1.56,13.49-14.62,16l-7.28-2,3-4.91.21-5.83-1.31-12.29S331.93,340.19,334.55,331.18Z"/><path class="cls-3" d="M366.31,330s-9.08-32,33.92-72.54c0,0-34,43.15-21.1,69,0,0,8.1-28.16,34.4-45.88,0,0-28.8,36.16-26.94,53.06,0,0,2.37,7.84,11.92-9.63,0,0,9-31,34.22-42.15,0,0,24.8-8.44,43.3-1.23,0,0-28.16-8.1-51.59,17.35,0,0-8.39,13.52-9.06,17.35,0,0-5.9,12.94-10.44,18.2,0,0,10.08-1.84,17.81-13.63,0,0,18.09-32.59,41.24-30.15,0,0,11.91-.69,21.84-.92,0,0,15.77-2.12,21.89,3.79l-16.83,31.25s-29.29-6.25-45.37,8c0,0-60,15.12-73.16,8.23Z"/><path class="cls-3" d="M443.32,329.3s26.74,20,34.46-7.56l12.56-2.42L464,354.9l-76.77-16.13,22-2.53Z"/><path class="cls-3" d="M272.92,178.13s24.89-14.76,50.68-5.58c0,0,27.57-3.32,37.95-17.3,0,0,32.82-48.13,39.5-55.48,0,0,21.66-39.73,22.46-52,0,0,13.67-44.69,27-39.41,0,0,23.26,20.8,48.46,70,0,0,26.37,45.27,27.21,55.58,0,0,7.55,34.46,10.33,39.58,0,0-8.74-12.65-9.56-16.14,0,0,8.76,37.33,9.79,59.67,0,0,.24,34.6,3.22,42.83l-25.6-21.83s8.29-49.73,3-87.87c0,0-4.7-26.73-12.89-34.79,0,0-19.62-32.15-27.16-50.86,0,0-7.1-14.62-17.71-26.3,0,0-7.92-18.1-13.05-15.32,0,0-7.44,8.57-7.92,24.43,0,0,2.38,32.53-50,104.68,0,0,19.76-12,24.48-12.05,0,0-22.24,19.39-25.41,32.74,0,0-4.54,5.26-18.36,9L340.5,195.36S309.05,166.51,304.68,177Z"/><path class="cls-3" d="M521.24,216s-2.93,5.42-11.36,5.29A73.46,73.46,0,0,1,504,184.85s4.89,5.16,6.2,8.53c0,0-8.67-34.73-4.56-53,0,0,2.85-8-10.46-13.3,0,0-5-5.65-5.36-7.14,0,0,18.62,74.92-3.37,95.31,0,0,14.12-58.45-3.94-104.1,0,0-11.16-25.21-13.29-32.06,0,0-2.16-13.67-6.41-11.63,0,0-3.86,1.44-5.8,6.61,0,0-24.15,91.79-55,116.88,0,0-12,13.83-25.33,19.59l8.66,1.12s-8.17,7.69-9.66,8c0,0,19.18-5.54,37-1.32,0,0-15.11,7.22-18.16,12.14,0,0-2.66,4.3-6.53,5.73,0,0,18.65-3.32,25.74-13.39,0,0,30.31-11.83,57.38-6.1,0,0-12.33,3.41-15.34,6.22,0,0,14.16-2.27,25.34,5.08,0,0,8.57,7.45,6.05,10.14,0,0-4.39,3.65-15.92,3.73,0,0-15.25-.1-19.24.84,0,0,9.52,2.49,13.09,4.28,0,0,17.18,3.85,26.6,3.74,0,0,15.69,4.19,16,7.79,0,0,1.9,5.86-11.71,3.8,0,0-5.42-2.93-9.81.73,0,0,7.08-1.14,10.74,3.25,0,0-5.21.17-7.61,3.36,0,0,11,0,15.45,3.21,0,0,7.93.24,8.1,5.45,0,0,2.63,6.73-15.05,11.93L494.45,301s29.71,3.53,44.35,3.25c0,0,55.37,12.22,62.71,70.36L619.74,383s-.65-31.87-31.25-59.35c0,0,11.35,3.63,16.35,9.29,0,0-29.07-29.94-58.21-46.73,0,0,24.93,7.8,33.24,16.35,0,0-20.65-20.88-41.37-28.63,0,0,14.14-.16,28,11.82,0,0-25.74-29.14-31.15-32.07l-13-35.29Z"/><path class="cls-3" d="M518.16,299.14s5.2,17.68,5.14,21.9c0,0,17.82,2.12,24.52,10.53,0,0-12.2-5-23.76-2.83l7.37,4.57s-14.63-8.65-26,3.46c0,0,4.27,4.78,18.94,2.39,0,0,18.85-.22,25.78,9.18a54.71,54.71,0,0,0-21.25-5.52s23.48,6.05,29.15,16.8c0,0,16.82,11.28,24.54,26.27,0,0,5.85,7,8,4.95,0,0,8-6.08-30.29-48.55,0,0,24.12,4.32,40.94,15.6l15.51,16.84s21.3,43.84,25.14,87c0,0-3.39-14.44-16.52-32.36,0,0,8,36.45,8,54.31,0,0-8.51-11.66-12.93-14.83,0,0,8.8,26.3,7.29,44.5,0,0-5.11-15.08-9.91-17.63,0,0,.77,32.38-4.37,53,0,0-11.33-39.35-22-57.86,0,0-10.31-32.76-9-45.14,0,0,3.44-32.31-15.86-51.94,0,0,8.87,4.22,19.3,19.63,0,0-1.86-50.5-46.41-56.85,0,0,10,.27,12.76.68,0,0-10.85-12.68-41.88-10.66,0,0,9.51,2.5,12.47,3.91,0,0-6.67-1.59-23.6,2.38l-37.9-2.66,17.31-22.44,6.49-19.38,11.75-14.83Z"/><path class="cls-3" d="M184.23,214.16s-25.9-.75-42-22.19c0,0,2.72,1.29,10.54,4.24l1.05.39c8.63,3.23-13.19-13.7-20.83-17.16,0,0-37.77-28.95-46.66-40,0,0-17.63-23.69-22.93-26.12,0,0,2.59,26.7,6.53,36.8a86.75,86.75,0,0,1-11-9s7.42,69.67,15.68,89.26c0,0-12-4-15.85-9.4,0,0,13.68,22.52,24.62,37.81,0,0,3.47,8.11-1.83,14.6l-3.9,12.47s12.29-1.31,14.11,1.94c0,0,6.43,9.52,14.28-1.77l7.83-18.12s22.9-5.37,27.73-4.93c0,0-11.77-9.84-17.33-11.16,0,0,22.6-2.15,24.21-2s-1.61-.15-1.61-.15-15.8-4.7-19.63-5.37c0,0,21.52-13.45,30.19-12.33,0,0-10.89-1.65-19.74.95,0,0,13.71-13.19,25.6-11.78,0,0,16.39-1.74,28.22-5Z"/><path class="cls-3" d="M509.14,487.92c21.46,21,22.41,45.16,22.41,45.16-1.93-8.21-24-21.93-24-21.93-5.88-4.92-11.71-13-11.71-13-4.36,18.34-.72,74.2-.72,74.2-9.52-10.37-12.6-53.75-12.6-53.75-2.69,18.74,3.81,70,3.81,70,5.25,22.4-.55,37.94-.55,37.94l51.55,61.94c13.58-26,25.83-88,25.83-88,3.9,13.26,3.84,29.82,3.84,29.82C580.23,613,582,553.53,582,553.53c10.43,24.34,4,44,4,44,19.12-22.6,11.25-69.59,11.25-69.59,1.75,7.47,5.3,19.24,5.3,19.24,3.3-9.44.43-41.85.43-41.85l-12.93-31.62c-2.81-11.95-27.16-38.53-27.16-38.53-11.87-40.53-65.68-61.78-65.68-61.78C511,374.86,540,387.75,540,387.75c-8.08-7.56-48.55-25.63-48.55-25.63,20.11-1.57,42.76,14.38,42.76,14.38-12-17.66-52.41-28.66-52.41-28.66l-15.41-1.9-27.31-2.26L419,345.25c-13-1.68-34.47,4.14-34.47,4.14,4.48-1.05,23.75,3.88,23.75,3.88,14.84,2.82,29.49,18.29,29.49,18.29,8.53,5.81,21.86,20.7,26.24,25.7-2.17-1.4-5.4-.66-5.4-.66,10.32,7,9.55,34,9.55,34-4,6.45-9.26-2.56-9.26-2.56-5.66-7.34-15.45-12.13-15.45-12.13,4.78,3.61,10.7,18.76,10.7,18.76-5-4.35-9.61-4.05-9.61-4.05,6.8,5.49,8.86,17.62,8.86,17.62-10.41-.71-31.26-12.37-31.26-12.37-5.88-4.92-12-17.65-12-17.65l-8,16.06,25.63,15.25c10.93,3,48.51,2,48.51,2C486.55,455.42,497.3,471,497.3,471,502.39,479.27,509.14,487.92,509.14,487.92Zm7.56-8.07s-18-16.26-23.56-29.92c0,0,21.25,10,25.51,11.35l-6.41-7.16s11.07,3.29,13.64,5.21c-2.36-1.93-21.64-17.75-27.37-20.11,0,0-7.73-6.06-10.79-12.43,0,0,12.42,2.6,19.57,9.59,0,0,19,10.5,28.49,10.64,0,0-14.74-9.14-21-15.56,0,0-11.71-13-25-19.33,0,0,24.9,2,28.58,4.32,0,0-8.47-5.89-28.39-17,0,0,18.39,1.2,26.34,4.85,0,0-11.14-14.6-19.28-20.84-2.14-1.37-3.45-2.19-3.45-2.19a19.59,19.59,0,0,1,3.45,2.19c7.07,4.55,23.33,15.31,32.62,24,0,0-8.55-13-11.31-14.67,0,0,12,4.26,22.94,20.61,0,0,21,25.79,23.07,37.91,0,0-23.82-24.35-39.19-29.41,0,0,28.35,20.13,35.5,40.51,0,0,10.78,25.83,10.56,28.24,0,0-24.1-18.76-42.49-20,0,0,23.61,13.36,28.74,31.85,0,0-15.37-5.06-24-11.7C533.47,490.88,524.25,485.17,516.7,479.85Z"/><path class="cls-3" d="M443.35,879.05c49.64-36.84,45.33-85.45,45.33-85.45,5.52,16.82-1.57,43.69-1.57,43.69,23.34-31.47,25.32-103.61,25.32-103.61C516.2,743,516,772.23,516,772.23c27.38-91.48,5.27-118.58,5.27-118.58l-17.46-27.42-16.81-63c3.87,27.6,9.22,60.8,9.22,60.8L485,626.7c1-5.75-5.69-31-5.69-31,6,25.39-4.37,95.54-4.37,95.54l-2-28.67c4.36-18.35-.47-69.2-.47-69.2-1.5-9.35,7.86-52.95,10.14-63.29l-.87-11.35c-4.34-8.43-6.15-49.75-6.15-49.75-2.8-11.95-19.67-3.26-19.67-3.26a162.88,162.88,0,0,1-14.18-10.07c-16.11-4.88-22.47-15.21-22.47-15.21-1.71,2.77-86,32.78-86,32.78L321.1,525.73,344,576.28l18.55,42.12L389.06,661l45.87,17.6,24.54,13.93,2.54,1.78a7.5,7.5,0,0,1,4.73,1.25,7.33,7.33,0,0,1,1.57,3.15L484,709.64l-10.67,68.67c-10.88,44.29-44.36,82.86-44.36,82.86l-27,42.58C427.53,892.22,453.07,850,453.07,850,456.05,862.69,443.35,879.05,443.35,879.05ZM456,687.85c-2.05-12.13,4.66-13.7,4.66-13.7,10.59,1.45,7.24,14.05,7.24,14.05C462.19,684,456,687.85,456,687.85Zm-96.25-172s2.17,29.42,3.75,36.14c0,0-18.8.47-23.87-21.18,0,0-8.42-22.44,5.51-33.58C345.14,497.25,356,490,359.75,515.87Zm92.08-13.72s-6.38-33.94,6.74-28.36c0,0,14.4,7.65,12.75,44.27,0,0-3.09,20.42-5.86,18.7C465.46,536.76,459,535.92,451.83,502.15ZM438.51,472.2c-5.88-4.92-11.2,2.62-11.2,2.62a7,7,0,0,1-8.44,4.35c-20.32-9.41-20.68,2.48-20.68,2.48,2,1.89-6,4.56-6,4.56-12.11-11.33-14.58,5-14.58,5-3.11-3.21-15.19-4.31-15.19-4.31,4.84-12.95,33-17.19,33-17.19,10,2.38,29.12-6.83,29.12-6.83,15.15-5.92,19,.28,19,.28a23.76,23.76,0,0,1,6.36,10.32C450.71,477.21,438.51,472.2,438.51,472.2Zm1.67,50.8s-5.62,2.9-10-5.54c0,0-8.13,9-10.37,9.52,0,0-6.67-1.58-10.14-6.28,0,0-10.37,9.52-12.26,11.54,0,0-7.37-4.58-15.84-10.47,0,0-.58,14.32-3.79,17.43,0,0-18.61-12.17-13.54-40.93,0,0,7.91-6.58,14.14-.17,0,0,8.22-15.31,19.41-4.55,0,0,8.67-20.15,26.13-6.13l4.13-2.54s7.21-9.57,13.57.76A50.78,50.78,0,0,1,440.18,523Zm26.24,88.36s-2.2,10.76-11,3.38c0,0-1.49-13,5.41-13.87C460.81,600.87,469.15,602.85,466.42,611.36ZM455,640s-1-17.86,10.06-14.17c0,0,4.78,3.61,6.14,12.74C471.23,638.59,466.52,655.45,455,640Zm13,28.47s-3.86-3-11.85-3.52c0,0,2-11.51,6.16-14.05C462.31,650.92,471,651.24,468,668.49Z"/><path class="cls-3" d="M319.46,634a444.13,444.13,0,0,0,18.37,49.24s10.15,18.63,13,26.36c0,0,9.94,24.45,11.37,28.31,0,0,5.58,17.07,25.65,26.54,0,0,12.52,8.62,27.89,9.21,0,0,24.91,1,35.54-5.18l27.79-18.07,16.35-24.31-.92-21.84-27.77-8.71s2.69,2.51,2.2,10.51c0,0-5.7-4.18-15.37,8.33,0,0,.69-26.16,13.17-18.84L449.18,683.4l-51.35-24.18-10.42-8.59-36.13-64.51L344,555.26,304.61,564S306.46,598.73,319.46,634Zm7-39.46s-6.76,4.74-9.4,6.93c0,0-2.6-8.84,3.29-12.84C320.37,588.65,323.88,585.72,326.48,594.56ZM450,749.38a85.37,85.37,0,0,1,20-33.56c5.14,21.9-11.53,42.61-11.53,42.61C444.41,763.81,450,749.38,450,749.38Zm-42.67,14.1c-4.22-17.24-.36-27-.36-27,4.08,1.45,9,8.18,9,8.18,1.3-8,5.89-9,5.89-9,3.15,3,7.62,7.71,7.62,7.71,1.44-2.94,6.8-8.32,6.8-8.32,2.46,2.79,3.71,9,3.71,9,1-5,8.16-7.84,8.16-7.84C449,746.49,444.2,759,444.2,759c-4,5.86-8.05,2.12-8.05,2.12-2.13,3.84-10.07.25-10.07.25-4.22,5.41-8.92.28-8.92.28C413.37,767.94,407.29,763.48,407.29,763.48Zm-15-45.2c15.71,20,10.57,40.59,10.57,40.59-5.69,7.1-9.92.22-9.92.22C384.33,742.72,392.25,718.28,392.25,718.28ZM368,715.58s5.77-13.44,16.77,6.56c0,0-2.38,10-1.48,16.1C383.28,738.24,366.31,728.57,368,715.58Zm-8-22.81c7.88-4.48,12.58,13.32,12.58,13.32-6.29-2.2-10.81,9.89-10.81,9.89A18.76,18.76,0,0,1,360,692.77Zm-5.75-22.28s12.12,2.4,9.91,17.63c0,0-10.85-3.76-13.11,6.75C351.06,694.87,339.77,678.08,354.26,670.49ZM343.33,655.2c6-3.51,11.61,11.45,11.61,11.45C348.3,663,341.67,675,341.67,675,333.69,661.13,343.33,655.2,343.33,655.2Zm-6.17-19.56c6.12-3,10.09,13.91,10.09,13.91-8.75-3.72-11.86,5.41-11.86,5.41C326.8,640.69,337.16,635.64,337.16,635.64Zm-5.86-22.78s8.13,3.34,6.84,15.72c0,0-7.67-1.35-10.23,12.38C327.91,641,315.63,624.41,331.3,612.86Zm-3.5-14.93s6.09-.9,4.55,10.48c0,0-8.19.87-12.71,13A22.36,22.36,0,0,1,327.8,597.93Z"/><path class="cls-3" d="M193.53,715s-10.55,17.7-12.85,30.31c0,0,14.53-9.7,21.91-14.06,0,0-8.73,12-10.67,17.21,0,0,19-6.55,24.39-5.72,0,0-9.44,18-10.38,22.91,0,0,19.82-7.28,33.08-6.71,0,0-5.95,17.15-5.93,24,0,0,12.48-5,22.73-10.58l.95,19.73s5.45-8.1,5.74-11.32c0,0,5.93,27.49,10.14,36.48,0,0,2.7-15.34,4.19-15.69,0,0,1.45,19.61-3.1,33.8,0,0,13.47-5.25,23.26-21.73a288.19,288.19,0,0,1-5.23,35.89s8.95-2.1,20.09-17.32c0,0-2,18.33-7.49,28.54,0,0,17.75-9.41,20.91-13.83,0,0-1.91,20.93-2.09,24.64,0,0,8.4-6.69,9.93-9.15,0,0-1.1,15.48-2.12,17.82,0,0,9.78-7.54,12.07-11.23,0,0-1.36,16.6-2.19,22,0,0,10.31-9.77,12.72-13,0,0,1.42,12.79,0,20,0,0,10.29-16.59,12.26-23.88,0,0,2.35,16.77.62,25.06,0,0,10.11-12.87,15.71-22.59,0,0-1.83,14.61-2.42,21,0,0,14.32-12.82,18.14-19,0,0-4.82,15.31-8.78,23.06,0,0,32.69-21.84,34.59-24.92l22.3-23.6L461,832.38l16.18-38.45,13.48-47.79-11.19,1.57-16.37,8.56L449.3,769s4,14.81-17,19.21c0,0-34,7.44-44.16-15.89,0,0-.67-5.1,10.1-3.95l-16.53-14.5L368.29,737l-16.77-31.24s2.39,14.66-4,9.86c0,0-36-59.31-37.9-96.66,0,0,2.7-6.41,5-1.16l-4.24-49.42L273,570.34s-11.73,30.59-32.67,46.52l-10.46,2.46-2,.46s2.65-20,7.34-26.92c0,0-58.53,59.41-72.7,104.21,0,0-5.86,10.83-9.41,15.86,0,0,26.33-10.9,31.51-17.89,0,0-2,11.5-12.37,23.38C172.27,718.42,183.66,720,193.53,715ZM358.22,823.93s-5.48-32.32-7.37-47.1l-1.34-10.19s7.28,10.9,11.4,17.28c0,0-2.42-12.56-3.62-15.43,0,0,14.71,20.18,19.95,26.83,0,0-.08-11.54-.43-13,0,0,21.91,19.54,27.09,21.48,0,0,21.34-.8,23.71-1.89,0,0,15.76-8.94,20.67-5.9,0,0-1.68,13-12.52,33.92,0,0,2.76-10.62-3-15,0,0-13.57,20.5-15.25,33.5,0,0-3.88-23.25-2.17-38.35,0,0-14,32.16-14,45.3,0,0-7.86-31.23-6.35-49.44,0,0-5.1,9.59-6.22,18.26,0,0-9.3-8.32-8.89-11,0,0-7.79,16-7.59,19.11,0,0-2.76-31.91.05-37.82C372.29,794.38,358,803,358.22,823.93ZM279.68,580.86c-1.52,2.46-16.43,21.71-16.43,21.71l9.6-3.83c.9,15-13.9,34.77-13.9,34.77-8.41,6.69-36.24,44.72-36.24,44.72,4.58-16.3,13.87-32.65,13.87-32.65l-15.2,13.54C247.73,603.58,279.68,580.86,279.68,580.86ZM267.74,659.8s-25.55,34.34-38.5,46.31C229.24,706.11,241.27,672.31,267.74,659.8Zm23.46-52.24c-14.6,31.78-37.56,50.3-37.56,50.3C262.34,639,291.2,607.56,291.2,607.56Zm20.14,200.06c-4.41-21-6-79.77-5.68-78,1.14,7.08,8,29.63,8,29.63l4.94-32.67c8.15,28,6.55,86.16,6.55,86.16-6-14.35-8.34-40-8.34-40C313.12,779.38,311.34,807.62,311.34,807.62Zm-25-102.29c5.56,34.93,1.59,69.46,1.59,69.46C280,752.48,286.3,705.33,286.3,705.33Zm-28.86-11.09c9.82-18.58,27.62-56.88,27.62-56.88C280.67,674.62,257.44,694.24,257.44,694.24ZM230.09,750c12.92-9.86,28.11-48.08,28.11-48.08C252.79,741.54,230.09,750,230.09,750Z"/><path class="cls-3" d="M333.32,326s3.5,14.93-12.78,9.3c0,0-6.45-4-12.37-19.15,0,0-18-26.49-24.43-33.65,0,0,11,23.41,14.42,31.27,0,0,10.78,25.83,17.85,25.74,0,0-11.73,13.78-23.79-14.11,0,0-19.25-31.71-25.83-39.62,0,0,7.09,23.54,10.91,29.73,0,0-6,4.56-13.74-1.5,0,0-30.09-41-36.72-45.74,0,0,11.1,17.09,14.56,21.79,0,0,10.35,17.26,12.9,21.39,0,0-35.12-15.39-40.73-25.89l2.1,9S199.08,284.19,193.78,265c0,0-.19,26,5.94,38.78,0,0-31.2-15.53-33.53-22.07,0,0,10.31,20.42,16.89,28.33,0,0-13-4.84-34.25,1.73,0,0-11.38,1.88-22.57,4.51a67.79,67.79,0,0,0-28.64,12.23S114,324.61,120,326.37c0,0,24.77-1.87,30.21-5.51,0,0,9-2.1,7.77,2.9,0,0-2.33,6.85-10.89,7.28,0,0-13.79,1.66-18.49,5.12,0,0-1.76,5.93-17.17,4,0,0,11.06,6.86,21.73,2,0,0,12.74-6.13,13.74,1.51,0,0,2.55,4.13-13.26,3.9,0,0,5,4.35,9.22,5.71,0,0-14.32-.58-27.32,11.13a133,133,0,0,1,39.34-6.86s.66,6.15,24.55.54c0,0-13.79,1.66-21.16-2.91,0,0,18.14-6.62,22.31-12.32,0,0,14.84,2.82,26.17,4.1,0,0,21.33,3.66,22.56,8.89l7.86-3.42a338.82,338.82,0,0,0-38.67-13.77s-13.7-4.67,8.08-5.84c0,0,15.12-16.15,34.65-3.4,0,0-8-10.72-5.74-14.4,0,0,19.35,12,27,14.15,0,0,16.37,12.7,24,14.86,0,0,16.94,11.78,17.81,15.51l18.19-9.77L336.69,337Z"/><path class="cls-3" d="M268.25,370.88s.57,11.42-24.22,10.93c0,0-12.27-.8-15.48-10l-9.25,5.32-41.75,5.59s-17.17,20.83-32.07,22.22c0,0,5.27,4.54,31.57-13.18,0,0-15.76,17.88-26.3,17.72,0,0,11,11.08,28.54-1.44,0,0-12,16-19.83,16.2,0,0,12.87,10.11,33.14-2,0,0,.05,4.71-6.45,8.34,0,0,8.08-1.37,9.23-3.22,0,0-49,44-50.53,46.51,0,0,46.25-42.35,67.39-46.26l2,6.35s7.82-.26,9.43-.11c0,0-15.51,34.62-41.69,43.91,0,0,17.45,2.73,76.55-45.26,0,0,22.2-17.28,25.1-20.59a89.07,89.07,0,0,0-12.26-.8s11.27-7.89,22.81-8c0,0,11.18-1.58,15.31-4.12,0,0-10.24-3.37-13.35-3.17,0,0,17.31-4.58,18.31-13.74,0,0,.91-2.84,8.37-4.59,0,0-14.34-2.94-22.15-2.68Z"/><path class="cls-3" d="M176.07,170.39s-15.93-29.87-44.76-43.06c0,0-22-8.51-47.39-31.94,0,0-27.91-33.89-45-35.13,0,0-15.69,4.73-14.83,30.78,0,0-8.12,46-3.1,67.41,0,0-6.38,80.26,12.27,153.08,0,0,8.26,37.44-6.65,90.3,0,0-16.12,34.23-18.68,48,0,0,14.85-6.11,23.19-8.59l25-19s-25,7.45-33.67,13.15c0,0,15.71-31.52,59.64-59.15,0,0-27.74-1.89-34.63,2.35,0,0,9.09-19.46,27.86-31.21,0,0-12.91.92-14.28,1.77,0,0,21.88-20.88,32.13-26.44,0,0-13.53.55-18.56-3,0,0-21.65-11.72-27.41-58.68,0,0-4.63-39.87-1.83-70.45,0,0,5.79-64.9,5-77.31,0,0,2.69-31.08,20.41-13.71,0,0,31.42,31,37.41,36.38,0,0,6.58,7.91,21.57,9.12,0,0,18.32,2,28.17,23.85,0,0,22.63,38.27,48.19,37.53L221,209.74l-19.86-15.3-24.23-22.67Z"/><path class="cls-3" d="M386.19,437.21,356,433.79l-13.61-2.06s-13,9.36,3.06,10.84c0,0-22.22,1.53-27.94,19.68,0,0-14,23.23-38.42,24.23,0,0,19.55-30.83,32.61-33.37,0,0-17.1-1.24-31.28,18.89,0,0,5.34-17.53,14.77-26.57,0,0-12.39,7.63-13.68,11.08,0,0-4.7-8.87,10.64-24,0,0-2.81-3-8.69,1,0,0,1.53-11.39,14.32-12.81A22.83,22.83,0,0,0,279.36,425s5.18-7,9.08-10.53l-13.17,2-42.09,28.78s10.28,1.26,15.87.48c0,0-25.66,24.92-32.23,32.76a39.88,39.88,0,0,0,13.79-1.66s-19.16,21.29-27.72,38.53c0,0,36.21-33.7,55.15-40.24,0,0-19.72,34.56-48.46,57.57,0,0,16.24-3.54,49-28.54,0,0-19.08,32.82-40.83,44.22,0,0,16.38-.69,18.84-3.63,0,0-11.38,15.27-16.3,21.16,0,0,22-3.59,32-11.44,0,0-21.71,35-38.9,52.44l7.16,7s21.1-30.94,48.15-36.5l72-12.15-7.91-43.83-4.82-13.83,12.61-23.44L420.88,444l-19.53-12.75Z"/><path class="cls-3" d="M98.59,389.67S25.86,415.39,9.46,493.27c0,0,20.31-27.6,27.52-37.17,0,0-15.22,35.86-16.63,43.28a80,80,0,0,1,20.17-18.12S26.35,521.6,24.39,553.57c0,0,10.87-30.91,27.43-44.24,0,0-19.13,49.38-15.73,84,0,0,10.2-23.66,15.7-30.46,0,0-1.83,35.87,0,53.56,0,0,18.64-41.39,24.53-49.86,0,0-4.69,53.87-1.23,72,0,0,8.22-15.32,15.42-24.89,0,0,2.84,22.18,5.51,43.61,0,0,16.7-22.82,24.65-32.57,0,0-6,31.35-6,44.74,0,0,12-16.19,17.15-27.65a289,289,0,0,1-4.47,38.07s14.51-25.46,16.62-29.89c0,0-2,45.35-1.27,61.73,0,0,11-40.38,21.64-55.48,0,0,3.86,16.42,1.64,40.57l59.6-81.71,5.95-25s-22.58,17.9-38,29.39c0,0,17.14-27.65,20.88-41.91,0,0-13.18,11-27.5,23.78,0,0,16-25.81,20.22-34.68,0,0-40.46,32.33-57.68,39.52,0,0,14.6-31.78,29.94-50.34,0,0-16.17,11.67-26.36,21.94,0,0,7.69-17.56,12.27-24.94,0,0-27.29,21.37-38.27,35,0,0,10.49-56,37.42-78.87,0,0-46.88,38.56-63.27,116.44,0,0,2-38.29,4.43-48.3,0,0-13.54,22.87-19.87,36.17,0,0,6.1-61.29,42.35-98.15,0,0-36.78,34.62-44.74,57.75,0,0,4.42-34.9,19.8-56.63,0,0-21.18,23.88-30,43.28,0,0,8.68-46.94,38.82-72.91,0,0-27.45,20.62-53,76.23,0,0,1.41-57.82,62.62-122.59,0,0-22.93,16.41-30.32,25.23,0,0,15.65-27.3,58.09-54.58,0,0-45.46,17.75-95,88.45,0,0,8.36-24.8,17.86-38.06,0,0-14.58,5-20.6,9.56,0,0,24.05-41.87,62.39-56.38,0,0-40.19,13.37-69.5,46.23,0,0,13-25.1,17.94-31,0,0-16.87,8.68-28,18.37C34.31,448.06,69.11,408.4,98.59,389.67Z"/><path class="cls-3" d="M231.5,307.14s79.85,47.18,81.66,59.88-87.1-3.63-87.1-3.63l-30.85,25.4s-14.52-9.07-32.67-5.44-18.14-5.44-18.14-5.44l14.41-19.17,5.55-15.31Z"/></g></svg>