<svg id="Capa_1" data-name="Capa 1" xmlns="http://www.w3.org/2000/svg" viewBox="0 0 78 78"><defs><style>.cls-1{fill:#87ced9;}.cls-2{fill:#4398d1;}.cls-3{fill:#7405f0;}.cls-4{fill:#5e05d3;}.cls-5{fill:#3269a1;}.cls-6{fill:#0785d9;}.cls-7{fill:#bf3d75;}.cls-8{fill:#5eb3d1;}.cls-9{fill:#71c4d1;}</style></defs><g id="surface1"><path class="cls-1" d="M68.9,72.8A3.91,3.91,0,0,1,65,76.7H13a3.91,3.91,0,0,1-3.9-3.9V5.2A3.91,3.91,0,0,1,13,1.3H65a3.91,3.91,0,0,1,3.9,3.9V72.8Z"/><path class="cls-2" d="M65,76.7H5.2a3.91,3.91,0,0,1-3.9-3.9V68.9H61.1v3.9A3.91,3.91,0,0,0,65,76.7Z"/><path class="cls-3" d="M1.3,22.1h26V37.7H1.3Z"/><path class="cls-4" d="M8.18,32.53l-2.6-2.6a1.3,1.3,0,0,1,0-1.84l2.6-2.6L10,27.33,8.34,29,10,30.69Z"/><path class="cls-4" d="M20.42,32.53l-1.84-1.84L20.26,29l-1.68-1.68,1.84-1.84,2.6,2.6a1.3,1.3,0,0,1,0,1.84Z"/><path class="cls-4" d="M11.76,32.5l2.61-7.8,2.46.82-2.6,7.8Z"/><path class="cls-2" d="M32.5,9.1H76.7v26H32.5Z"/><path class="cls-5" d="M76.7,29.9l-9.1-5.2-10,5.2L45.5,22.1l-13,7.8v5.2H76.7Z"/><path class="cls-3" d="M65,17.55a3.25,3.25,0,1,1-3.25-3.25A3.26,3.26,0,0,1,65,17.55Z"/><path class="cls-6" d="M14.3,42.9H46.8V58.5H14.3Z"/><path class="cls-7" d="M18.2,46.8h5.2v2.6H18.2Z"/><path class="cls-7" d="M26,46.8H37.7v2.6H26Z"/><path class="cls-7" d="M40.3,46.8h2.6v2.6H40.3Z"/><path class="cls-7" d="M18.2,52H33.8v2.6H18.2Z"/><path class="cls-7" d="M36.4,52h6.5v2.6H36.4Z"/><path class="cls-8" d="M13,5.2h2.6V7.8H13Z"/><path class="cls-8" d="M18.2,5.2h2.6V7.8H18.2Z"/><path class="cls-8" d="M23.4,5.2H26V7.8H23.4Z"/><path class="cls-8" d="M13,10.4H28.6V13H13Z"/><path class="cls-6" d="M52,48.1H76.7V63.7H52Z"/><path class="cls-7" d="M55.9,52h2.6v2.6H55.9Z"/><path class="cls-7" d="M55.9,57.2h2.6v2.6H55.9Z"/><path class="cls-7" d="M61.1,52H72.8v2.6H61.1Z"/><path class="cls-7" d="M61.1,57.2H72.8v2.6H61.1Z"/><path class="cls-9" d="M35.1,35.1H68.9v2.6H35.1Z"/><path class="cls-9" d="M54.6,63.7H68.9v2.6H54.6Z"/><path class="cls-9" d="M27.3,24.7v13H9.1v2.6H29.9V24.7Z"/><path class="cls-9" d="M46.8,45.5v13H16.9v2.6H49.4V45.5Z"/><path d="M7.8,5.2v13h2.6V5.2A2.59,2.59,0,0,1,13,2.6H65a2.59,2.59,0,0,1,2.6,2.6h2.6A5.2,5.2,0,0,0,65,0H13A5.2,5.2,0,0,0,7.8,5.2Z"/><path d="M5.2,78H65a5.2,5.2,0,0,0,5.2-5.2V67.6H67.6v5.2a2.6,2.6,0,0,1-5.2,0V68.9a1.3,1.3,0,0,0-1.3-1.3H10.4v-26H7.8v26H1.3A1.3,1.3,0,0,0,0,68.9v3.9A5.2,5.2,0,0,0,5.2,78ZM2.6,70.2H59.8v2.6a5.17,5.17,0,0,0,.7,2.6H5.2a2.59,2.59,0,0,1-2.6-2.6V70.2Z"/><path d="M1.3,39h26a1.3,1.3,0,0,0,1.3-1.3V22.1a1.3,1.3,0,0,0-1.3-1.3H1.3A1.3,1.3,0,0,0,0,22.1V37.7A1.3,1.3,0,0,0,1.3,39ZM2.6,23.4H26v13H2.6Z"/><path d="M8.18,26.38,5.58,29a1.3,1.3,0,0,0,0,1.84l2.6,2.6L10,31.58,8.34,29.9,10,28.22Z"/><path d="M20.42,26.38l-1.84,1.84,1.68,1.68-1.68,1.68,1.84,1.84,2.6-2.6A1.3,1.3,0,0,0,23,29Z"/><path d="M11.76,33.39l2.61-7.8,2.46.82-2.6,7.8Z"/><path d="M76.7,7.8H32.5a1.3,1.3,0,0,0-1.3,1.3v26a1.3,1.3,0,0,0,1.3,1.3H76.7A1.3,1.3,0,0,0,78,35.1V9.1A1.3,1.3,0,0,0,76.7,7.8Zm-1.3,26H33.8V30.64l11.67-7L56.86,31a1.29,1.29,0,0,0,1.3.06l9.41-4.87,7.83,4.47Zm0-6.14-7.15-4.09a1.27,1.27,0,0,0-1.24,0L57.64,28.4,46.21,21a1.28,1.28,0,0,0-1.37,0l-11,6.61V10.4H75.4Z"/><path d="M61.75,22.1a4.55,4.55,0,1,0-4.55-4.55A4.55,4.55,0,0,0,61.75,22.1Zm0-6.5a2,2,0,1,1-2,2A1.95,1.95,0,0,1,61.75,15.6Z"/><path d="M13,42.9V58.5a1.3,1.3,0,0,0,1.3,1.3H46.8a1.3,1.3,0,0,0,1.3-1.3V42.9a1.3,1.3,0,0,0-1.3-1.3H14.3A1.3,1.3,0,0,0,13,42.9Zm2.6,1.3H45.5v13H15.6Z"/><path d="M18.2,46.8h5.2v2.6H18.2Z"/><path d="M26,46.8H37.7v2.6H26Z"/><path d="M40.3,46.8h2.6v2.6H40.3Z"/><path d="M18.2,52H33.8v2.6H18.2Z"/><path d="M36.4,52h6.5v2.6H36.4Z"/><path d="M13,5.2h2.6V7.8H13Z"/><path d="M18.2,5.2h2.6V7.8H18.2Z"/><path d="M23.4,5.2H26V7.8H23.4Z"/><path d="M13,10.4H28.6V13H13Z"/><path d="M76.7,46.8H52a1.3,1.3,0,0,0-1.3,1.3V63.7A1.3,1.3,0,0,0,52,65H76.7A1.3,1.3,0,0,0,78,63.7V48.1A1.3,1.3,0,0,0,76.7,46.8ZM75.4,62.4H53.3v-13H75.4Z"/><path d="M55.9,52h2.6v2.6H55.9Z"/><path d="M55.9,57.2h2.6v2.6H55.9Z"/><path d="M61.1,52H72.8v2.6H61.1Z"/><path d="M61.1,57.2H72.8v2.6H61.1Z"/><path d="M67.6,39h2.6v5.2H67.6Z"/></g></svg>