<svg id="Capa_1" data-name="Capa 1" xmlns="http://www.w3.org/2000/svg" viewBox="0 0 98 98"><defs><style>.cls-1{fill:#d1d1d1;}.cls-2{fill:#c7c7c7;}.cls-3{fill:#4398d1;}.cls-4{fill:#87ced9;}.cls-5{fill:#126099;}.cls-6{fill:#ebebeb;}.cls-7{fill:#3e8cc7;}</style></defs><path class="cls-1" d="M1.63,14.7V83.3h88.2a6.54,6.54,0,0,0,6.54-6.53V14.7Z"/><path class="cls-2" d="M79.33,14.7C64.53,52.59,39,72.93,20.29,83.3H89.83a6.54,6.54,0,0,0,6.54-6.53V14.7Z"/><rect class="cls-3" x="39.2" y="31.03" width="19.6" height="9.8"/><rect class="cls-4" x="17.97" y="53.9" width="19.6" height="9.8"/><rect class="cls-4" x="60.43" y="53.9" width="19.6" height="9.8"/><polygon class="cls-3" points="80.03 96.37 42.47 96.37 37.57 93.1 42.47 89.83 80.03 89.83 80.03 96.37"/><rect class="cls-5" x="71.87" y="89.83" width="3.27" height="6.53"/><path class="cls-6" d="M86.57,1.63v68.6h3.26a6.54,6.54,0,0,1,6.54,6.54V8.17a6.54,6.54,0,0,0-6.54-6.54Z"/><rect class="cls-7" x="16.33" y="68.6" width="6.53" height="3.27"/><rect class="cls-7" x="26.13" y="68.6" width="13.07" height="3.27"/><rect class="cls-7" x="58.8" y="68.6" width="13.07" height="3.27"/><rect class="cls-7" x="75.13" y="68.6" width="6.53" height="3.27"/><rect class="cls-7" x="32.67" y="22.87" width="21.23" height="3.27"/><rect class="cls-7" x="57.17" y="22.87" width="8.17" height="3.27"/><rect x="32.67" y="22.87" width="21.23" height="3.27"/><rect x="57.17" y="22.87" width="8.17" height="3.27"/><path d="M89.83,0H86.57a1.64,1.64,0,0,0-1.64,1.63V13.07H1.63A1.63,1.63,0,0,0,0,14.7V83.3a1.63,1.63,0,0,0,1.63,1.63h88.2A8.16,8.16,0,0,0,98,76.77V8.17A8.17,8.17,0,0,0,89.83,0Zm0,81.67H3.27V16.33H84.93v53.9a1.65,1.65,0,0,0,1.64,1.64h3.26a4.9,4.9,0,1,1,0,9.8Zm4.9-11.44a8.15,8.15,0,0,0-4.9-1.63H88.2V3.27h1.63a4.9,4.9,0,0,1,4.9,4.9V70.23Z"/><path d="M80,52.27H71.87v-4.9a1.65,1.65,0,0,0-1.64-1.64H50.63V42.47H58.8a1.64,1.64,0,0,0,1.63-1.64V31A1.63,1.63,0,0,0,58.8,29.4H39.2A1.63,1.63,0,0,0,37.57,31v9.8a1.64,1.64,0,0,0,1.63,1.64h8.17v3.26H27.77a1.65,1.65,0,0,0-1.64,1.64v4.9H18a1.64,1.64,0,0,0-1.64,1.63v9.8A1.64,1.64,0,0,0,18,65.33h19.6A1.63,1.63,0,0,0,39.2,63.7V53.9a1.63,1.63,0,0,0-1.63-1.63H29.4V49H68.6v3.27H60.43A1.63,1.63,0,0,0,58.8,53.9v9.8a1.63,1.63,0,0,0,1.63,1.63H80a1.64,1.64,0,0,0,1.64-1.63V53.9A1.64,1.64,0,0,0,80,52.27Zm-44.1,3.26v6.54H19.6V55.53Zm4.9-16.33V32.67H57.17V39.2ZM78.4,62.07H62.07V55.53H78.4Z"/><rect x="16.33" y="68.6" width="6.53" height="3.27"/><rect x="26.13" y="68.6" width="13.07" height="3.27"/><path d="M81.67,89.83A1.64,1.64,0,0,0,80,88.2H42.47a1.6,1.6,0,0,0-.9.28l-4.9,3.26A1.64,1.64,0,0,0,36.22,94a1.61,1.61,0,0,0,.45.45l4.9,3.26a1.6,1.6,0,0,0,.9.28H80a1.64,1.64,0,0,0,1.64-1.63Zm-9.8,4.9H43L40.51,93.1,43,91.47H71.87Zm6.53,0H75.13V91.47H78.4Z"/><rect x="58.8" y="68.6" width="13.07" height="3.27"/><rect x="75.13" y="68.6" width="6.53" height="3.27"/></svg>