<svg id="Capa_1" data-name="Capa 1" xmlns="http://www.w3.org/2000/svg" viewBox="0 0 28.1 28.1"><defs><style>.cls-1{fill:#0190e9;}</style></defs><path class="cls-1" d="M20.39,9.55a2.41,2.41,0,0,0-.6-.93A2.55,2.55,0,0,0,18.85,8a4.55,4.55,0,0,0-1.51-.28c-.85,0-1.11-.05-3.28-.05s-2.42,0-3.28.05A4.68,4.68,0,0,0,9.27,8,2.73,2.73,0,0,0,7.73,9.55a4.68,4.68,0,0,0-.28,1.51c0,.86,0,1.11,0,3.28s0,2.43,0,3.28a4.55,4.55,0,0,0,.28,1.51,2.55,2.55,0,0,0,.61.94,2.41,2.41,0,0,0,.93.6,4.18,4.18,0,0,0,1.51.28c.86,0,1.11.05,3.28.05s2.43,0,3.28-.05a4.08,4.08,0,0,0,1.51-.28,2.59,2.59,0,0,0,1.54-1.54,4.08,4.08,0,0,0,.28-1.51c0-.85,0-1.11,0-3.28s0-2.42,0-3.28a4.18,4.18,0,0,0-.28-1.51m-6.33,9a4.17,4.17,0,1,1,4.17-4.17,4.17,4.17,0,0,1-4.17,4.17M18.4,11a1,1,0,1,1,1-1,1,1,0,0,1-1,1"/><path class="cls-1" d="M14.06,11.63a2.71,2.71,0,1,0,2.71,2.71,2.71,2.71,0,0,0-2.71-2.71"/><path class="cls-1" d="M14.05,0A14.05,14.05,0,1,0,28.1,14.05a14,14,0,0,0-14-14m8.09,17.69a5.91,5.91,0,0,1-.38,2A4.18,4.18,0,0,1,19.38,22a5.91,5.91,0,0,1-2,.38c-.86,0-1.14,0-3.35,0s-2.48,0-3.35,0a6,6,0,0,1-2-.38A4.16,4.16,0,0,1,7.3,21.1a3.83,3.83,0,0,1-.93-1.44,5.91,5.91,0,0,1-.38-2c0-.87,0-1.14,0-3.35S6,11.86,6,11a6,6,0,0,1,.38-2A3.91,3.91,0,0,1,7.3,7.58a4,4,0,0,1,1.44-.93,6,6,0,0,1,2-.38c.87,0,1.15,0,3.35,0s2.49,0,3.35,0a5.91,5.91,0,0,1,2,.38,3.83,3.83,0,0,1,1.44.93A4.07,4.07,0,0,1,21.76,9a6,6,0,0,1,.38,2c0,.87,0,1.15,0,3.35s0,2.48,0,3.35"/></svg>