<?xml version="1.0" encoding="utf-8"?>
<!-- Generator: Adobe Illustrator 21.0.0, SVG Export Plug-In . SVG Version: 6.00 Build 0)  -->
<svg version="1.1" id="Capa_1" xmlns="http://www.w3.org/2000/svg" xmlns:xlink="http://www.w3.org/1999/xlink" x="0px" y="0px"
	 viewBox="0 0 396.9 443.6" style="enable-background:new 0 0 396.9 443.6;" xml:space="preserve">
<style type="text/css">
	.st0{fill:#020203;stroke:#FFFFFF;stroke-width:3;stroke-miterlimit:10;}
	.st1{fill:#FFFFFF;stroke:#FFFFFF;stroke-width:7;stroke-linecap:round;stroke-linejoin:round;stroke-miterlimit:10;}
	.st2{fill:#020203;}
	.st3{fill:#FFFFFF;}
</style>
<g>
	<path class="st0" d="M386.3,143.8l-3.5-4.3c-3-3.6-73.7-88.5-184-88.5l-1.2,0C135.8,51.4,89,76,60.6,96.5
		c-30.9,22.4-47.1,44.7-47.8,45.6l-3,4.2l0.8,5.4c5.7,39.7,15.9,74.2,28.3,104.1H32v51.8h33c16,26.5,33,47.7,48.4,63.8
		c41.4,43.6,78.9,61.3,80.5,62l3.9,1.8l3.9-1.8c1.6-0.7,39.6-18.8,81.4-62.8c15.2-16,32.1-36.9,47.9-63h46.1v-51.8h-19.9
		c12.7-30.4,22.9-65.7,28.4-106.2L386.3,143.8z"/>
	<g>
		<g>
			<path class="st1" d="M322.7,155.5c0.2,0.2,0.3,0.3,0.5,0.5C323.2,156,323,155.8,322.7,155.5z"/>
			<path class="st1" d="M335.8,222.6c0-7.9-3.5-24-3.5-24c5.8,7.9,7.3,14.3,7.3,14.3c-1.3-14.7-7.2-29.6-9.8-35.7
				c-0.3-3.2-2.2-15-13.7-25.3c0,0,4.3,1.4,6.7,3.6c-2.5-2.5-13.8-13.6-25.2-20.1c0,0,11,3.4,14.7,7.2c0,0-9.1-9.2-18.3-12.6
				c0,0,6.2-0.1,12.3,5.2c0,0-8.1-9.2-12.1-12.8c-1-5.1-1.1-17.5-1.1-17.5c-0.5-9.9-4.3-26.3-4.3-26.3c0.4,1.5,4.2,7.1,4.2,7.1
				c-1.2-2.3-4.6-17.5-4.6-17.5c-0.4-4.5-12-24.5-12-24.5C265.3,22,255,12.8,255,12.8c-5.9-2.3-11.9,17.4-11.9,17.4
				c-0.4,5.4-9.9,23-9.9,23c-2.9,3.2-17.4,24.5-17.4,24.5c-4.6,6.2-16.7,7.6-16.7,7.6c-7.2-2.5-14.2-0.9-18.4,0.6
				c-1.9,0-3.3,0-3.3,0c-7.9-3-19.3,3.6-19.3,3.6c-3,2.1-9.6,3.4-9.6,3.4c-8.6-1-14.7-9.5-14.7-9.5l-0.2,0.2
				c-1.6-2.8-8.4-13.3-19.4-18.3c0,0-9.7-3.8-20.9-14.1c0,0-12.3-15-19.9-15.5c0,0-6.9,2.1-6.5,13.6c0,0-3.6,20.3-1.4,29.8
				c0,0-2.8,35.4,5.4,67.6c0,0,3.6,16.5-2.9,39.9c0,0-7.1,15.1-8.2,21.2c0,0,6.6-2.7,10.2-3.8l1.3-1c-4.8,6.3-8.8,14.2-10.9,24
				c0,0,9-12.2,12.1-16.4c0,0-6.7,15.8-7.3,19.1c0,0,3.4-4.6,8.9-8c0,0-6.3,17.8-7.1,31.9c0,0,4.8-13.6,12.1-19.5
				c0,0-8.4,21.8-6.9,37.1c0,0,4.5-10.4,6.9-13.4c0,0-0.8,15.8,0,23.6c0,0,8.2-18.3,10.8-22c0,0-2.1,23.8-0.5,31.8
				c0,0,3.6-6.8,6.8-11c0,0,1.3,9.8,2.4,19.2c0,0,7.4-10.1,10.9-14.4c0,0-2.7,13.8-2.7,19.7c0,0,5.3-7.1,7.6-12.2
				c0,0-0.4,8.8-2,16.8c0,0,6.4-11.2,7.3-13.2c0,0-0.9,20-0.6,27.2c0,0,4.9-17.8,9.6-24.5c0,0,1.2,5.3,1,13.4
				c-0.7,1.6-1.3,3.1-1.7,4.6c0,0-2.6,4.8-4.2,7c0,0,11.6-4.8,13.9-7.9c0,0-0.9,5.1-5.5,10.3c0,0,5,0.7,9.4-1.5
				c0,0-4.7,7.8-5.7,13.4c0,0,6.4-4.3,9.7-6.2c0,0-3.9,5.3-4.7,7.6c0,0,8.4-2.9,10.8-2.5c0,0-4.2,7.9-4.6,10.1c0,0,8.7-3.2,14.6-3
				c0,0-2.6,7.6-2.6,10.6c0,0,5.5-2.2,10-4.7l0.4,8.7c0,0,2.4-3.6,2.5-5c0,0,2.6,12.1,4.5,16.1c0,0,1.2-6.8,1.9-6.9
				c0,0,0.6,8.7-1.4,14.9c0,0,5.9-2.3,10.3-9.6c0,0-0.6,8.3-2.3,15.8c0,0,4-0.9,8.9-7.6c0,0-0.9,8.1-3.3,12.6c0,0,7.8-4.2,9.2-6.1
				c0,0-0.8,9.2-0.9,10.9c0,0,3.7-3,4.4-4c0,0-0.5,6.8-0.9,7.9c0,0,4.3-3.3,5.3-5c0,0-0.6,7.3-1,9.7c0,0,4.6-4.3,5.6-5.7
				c0,0,0.6,5.6,0,8.8c0,0,4.5-7.3,5.4-10.5c0,0,1,7.4,0.3,11.1c0,0,4.5-5.7,6.9-10c0,0-0.8,6.4-1.1,9.3c0,0,6.3-5.7,8-8.4
				c0,0-2.1,6.8-3.9,10.2c0,0,6.5-4.4,11.1-7.6l-5.4,8.5c11.3-5.1,22.6-23.7,22.6-23.7c1.3,5.6-4.3,12.8-4.3,12.8
				c21.9-16.3,20-37.7,20-37.7c2.4,7.4-0.7,19.3-0.7,19.3c10.3-13.9,11.2-45.7,11.2-45.7c1.7,4.1,1.6,17,1.6,17
				c6.1-20.3,6.6-33.4,5.7-41.5l3.7,4.5c6-11.5,11.4-38.8,11.4-38.8c1.7,5.9,1.7,13.2,1.7,13.2c5.9-7.6,6.7-33.9,6.7-33.9
				c4.6,10.7,1.8,19.4,1.8,19.4c8.4-10,5-30.7,5-30.7c0.8,3.3,2.3,8.5,2.3,8.5c0.8-2.3,0.8-7.8,0.6-12.2c2.4,6.7,4.2,12.9,4.2,12.9
				c2.3-9.1,1.9-23.4,1.9-23.4c2.1,1.1,4.4,7.8,4.4,7.8c0.7-8-3.2-19.6-3.2-19.6C332,217.4,335.8,222.6,335.8,222.6z"/>
		</g>
		<g>
			<path class="st2" d="M242.3,187.2c0,0,8.2-17.8-10.7-17.6c0,0-7.3-1.4-9.3,1.4c0,0-7,1.3-8.8,0.5c0,0-10.8-1.3-14.6,11.9
				c0,0-2.8,11.5,8.2,16.9c0,0,8.4,1.5,11.5,1.8c0,0-6.5-5.4-9.9-6.7c0,0-4.9-1.6-5.7-10.8c0,0-0.6-7.2,9.8-8.6
				c0,0,7.5-0.7,12.9-4.1c0,0,8.8-1,11,2.3c0,0,0,2.8-3.5,1.5c0,0-5.1-2.6-6.8,2.3c0,0-3.4,3.2-9.6,3.6c0,0-9,0-7.5,4.9
				c0,0-0.5,3.9,3.4,7.2c0,0,7.5,6.9,8,8.9l16.5-0.7C237.4,202,240.8,188.2,242.3,187.2z"/>
			<path class="st2" d="M157.9,163.9c0,0,4.2,0,2.4-1.7c0,0-6.9-4.9-18.6-7.2c0,0,18.7,1.6,21.3,9.6c0,0,5.8-0.9,7.1,1.8
				c0,0,1.6,1.7,3.2,1.6c0,0,1.2-1.7-2.8-4.2c0,0-5.3-2.7-6.2-3.9c0,0,4.9,2.1,8.1,2.7c0,0,6.2,2.7,7.7,5.4c0,0,1.9,3,6,3.9
				c0,0,6.3,1.3,5.7-1.3c0,0-3.2-6.9-4.6-7.9l5.9-0.5l1.6,8.7l-3,4.9l-15.5-0.8c0,0-3.7-4-11.8-3.7c0,0-4.4,0.8-10,5.8l-15.3,1.7
				c0,0-3.3-1.3-5.5,1.1c0,0-8.5,1.5-10.2,3.1c0,0-11.5,3.2-16.2,0.1c0,0,5.7,0.7,10.9-1.9c0,0-5.8-1.9-10.7-0.3
				c0,0,1.1-2.1,10.3-1.7c0,0-1.2-3-7.6-2.6c0,0-5.2,1.7-6.2,1.2c0,0,2.4-0.6,4.8-3.2c0,0,1.3-2.4,8.4-2.7c0,0,5.7,1.5,9.4-4.5
				l5.4,0.4c0,0-1.5,0.4-2.9,1.4c0,0,13.6-2.3,17.6-2c0,0-16.2,2.9-22.7,6c0,0,4.8,1.7,11.7-0.4c0,0-5.5,2.4-9.6,2.5
				c0,0-3.5,1-3.8,2.7c0,0,5.7-1.6,7.7-1.6c0,0,4.5,0.3,8-0.5c0,0,7.6-2,9.1-4.5C146.9,171.4,154.9,163,157.9,163.9z"/>
			<path class="st2" d="M203.9,155.3c0,0-4.8-13.7-19.6-26.4c0,0,7.8,4.7,15,14.6c0,0-0.7-7-8.5-11.7c0,0,6.4,0.8,16.6,12.3
				c0,0,2.1-4-3.1-9.5c0,0-13.9-13.7-16.2-14.7c0,0,6.1,1.1,16.7,12.1c0,0,3.7-3.2,1.4-8.7c0,0-3.3-7.1-4.9-10.2
				c0,0-2.5-3.6-3.2-6.9c0,0-2.5-10.5-17.3-13.6c0,0,3.4,2.7,5.4,7.1c0,0-7.7-2.4-9.4-3.6c0,0-5.9-3.3-8.8-3c0,0-4.1-0.7-8.3,2
				c0,0,3.4,0.8,6.1,0.2c0,0-6.5,2.9-12.4,1.5c0,0,1.7,3.3,2,4.6c0,0-4.8-5.6-9.8-5.3l-6.6-2.6l-6.4-8.5l1.5-1.5
				c0,0,6.2,8.5,14.7,9.5c0,0,6.6-1.3,9.6-3.4c0,0,11.4-6.6,19.3-3.6c0,0,14.3-0.3,15.6,1.4c0,0,8,9.3,11,11.3c0,0-6.6-2.4-8.1-3.9
				c0,0,9,10.9,11,16.4c0,0-3.6-3.6-5.9-6.3c0,0,5.5,8.7,7.9,11.1c0,0,4.6,9.8,4.8,14.4c0,0,3.6-11.3,9.9-11.1c0,0-5.9,1.4-7.8,16.2
				c0,0-3.2,14.9,0.8,17.4l2.3,1.1l3.5,9.8c0,0-6.3-5.2-10.3-2.4c0,0-4.4,4-3.9,6c0,0-0.5,2-3.7,1.8l-3.9-0.7c0,0-0.7,6-6.5,7.1
				l-3.2-0.9l1.3-2.2l0.1-2.6l-0.6-5.4C191.9,164.6,202.7,159.2,203.9,155.3z"/>
			<path class="st2" d="M217.9,154.8c0,0-4-14.1,15-32c0,0-15,19-9.3,30.5c0,0,3.6-12.4,15.2-20.2c0,0-12.7,16-11.9,23.4
				c0,0,1,3.5,5.3-4.2c0,0,4-13.7,15.1-18.6c0,0,10.9-3.7,19.1-0.5c0,0-12.4-3.6-22.8,7.7c0,0-3.7,6-4,7.7c0,0-2.6,5.7-4.6,8
				c0,0,4.4-0.8,7.9-6c0,0,8-14.4,18.2-13.3c0,0,5.3-0.3,9.6-0.4c0,0,7-0.9,9.7,1.7l-7.4,13.8c0,0-12.9-2.8-20,3.5
				c0,0-26.5,6.7-32.3,3.6L217.9,154.8z"/>
			<path class="st2" d="M251.9,154.4c0,0,11.8,8.8,15.2-3.3l5.5-1.1L261,165.7l-33.9-7.1l9.7-1.1L251.9,154.4z"/>
			<path class="st2" d="M176.7,87.7c0,0,11-6.5,22.4-2.5c0,0,12.2-1.5,16.7-7.6c0,0,14.5-21.2,17.4-24.5c0,0,9.6-17.5,9.9-23
				c0,0,6-19.7,11.9-17.4c0,0,10.3,9.2,21.4,30.9c0,0,11.6,20,12,24.5c0,0,3.3,15.2,4.6,17.5c0,0-3.9-5.6-4.2-7.1
				c0,0,3.9,16.5,4.3,26.3c0,0,0.1,15.3,1.4,18.9l-11.3-9.6c0,0,3.7-21.9,1.3-38.8c0,0-2.1-11.8-5.7-15.4c0,0-8.7-14.2-12-22.4
				c0,0-3.1-6.4-7.8-11.6c0,0-3.5-8-5.8-6.8c0,0-3.3,3.8-3.5,10.8c0,0,1,14.4-22.1,46.2c0,0,8.7-5.3,10.8-5.3c0,0-9.8,8.6-11.2,14.4
				c0,0-2,2.3-8.1,4l-12.7,6c0,0-13.9-12.7-15.8-8.1L176.7,87.7z"/>
			<path class="st2" d="M286.3,104.4c0,0-1.3,2.4-5,2.3c0,0-3.6-7.3-2.6-16.1c0,0,2.2,2.3,2.7,3.8c0,0-3.8-15.3-2-23.4
				c0,0,1.3-3.5-4.6-5.9c0,0-2.2-2.5-2.4-3.2c0,0,8.2,33.1-1.5,42.1c0,0,6.2-25.8-1.7-45.9c0,0-4.9-11.1-5.9-14.2c0,0-1-6-2.8-5.1
				c0,0-1.7,0.6-2.6,2.9c0,0-10.7,40.5-24.3,51.6c0,0-5.3,6.1-11.2,8.6l3.8,0.5c0,0-3.6,3.4-4.3,3.6c0,0,8.5-2.4,16.3-0.6
				c0,0-6.7,3.2-8,5.4c0,0-1.2,1.9-2.9,2.5c0,0,8.2-1.5,11.4-5.9c0,0,13.4-5.2,25.3-2.7c0,0-5.4,1.5-6.8,2.7c0,0,6.3-1,11.2,2.2
				c0,0,3.8,3.3,2.7,4.5c0,0-1.9,1.6-7,1.6c0,0-6.7,0-8.5,0.4c0,0,4.2,1.1,5.8,1.9c0,0,7.6,1.7,11.7,1.6c0,0,6.9,1.9,7.1,3.4
				c0,0,0.8,2.6-5.2,1.7c0,0-2.4-1.3-4.3,0.3c0,0,3.1-0.5,4.7,1.4c0,0-2.3,0.1-3.4,1.5c0,0,4.9,0,6.8,1.4c0,0,3.5,0.1,3.6,2.4
				c0,0,1.2,3-6.6,5.3l-1.4,4.7c0,0,13.1,1.6,19.6,1.4c0,0,24.4,5.4,27.7,31.1l8,3.7c0,0-0.3-14.1-13.8-26.2c0,0,5,1.6,7.2,4.1
				c0,0-12.8-13.2-25.7-20.6c0,0,11,3.4,14.7,7.2c0,0-9.1-9.2-18.3-12.6c0,0,6.2-0.1,12.3,5.2c0,0-11.4-12.9-13.7-14.2l-5.7-15.6
				L286.3,104.4z"/>
			<path class="st2" d="M284.9,141.1c0,0,2.3,7.8,2.3,9.7c0,0,7.9,0.9,10.8,4.6c0,0-5.4-2.2-10.5-1.2l3.3,2c0,0-6.5-3.8-11.5,1.5
				c0,0,1.9,2.1,8.4,1.1c0,0,8.3-0.1,11.4,4.1c0,0-4.2-2.3-9.4-2.4c0,0,10.4,2.7,12.9,7.4c0,0,7.4,5,10.8,11.6c0,0,2.6,3.1,3.5,2.2
				c0,0,3.5-2.7-13.4-21.4c0,0,10.6,1.9,18.1,6.9l6.8,7.4c0,0,9.4,19.3,11.1,38.4c0,0-1.5-6.4-7.3-14.3c0,0,3.5,16.1,3.5,24
				c0,0-3.8-5.1-5.7-6.5c0,0,3.9,11.6,3.2,19.6c0,0-2.3-6.7-4.4-7.8c0,0,0.3,14.3-1.9,23.4c0,0-5-17.4-9.7-25.5c0,0-4.5-14.5-4-19.9
				c0,0,1.5-14.3-7-22.9c0,0,3.9,1.9,8.5,8.7c0,0-0.8-22.3-20.5-25.1c0,0,4.4,0.1,5.6,0.3c0,0-4.8-5.6-18.5-4.7c0,0,4.2,1.1,5.5,1.7
				c0,0-2.9-0.7-10.4,1.1l-16.7-1.2l7.6-9.9l2.9-8.6l5.2-6.5L284.9,141.1z"/>
			<path class="st2" d="M137.5,103.6c0,0-11.4-0.3-18.5-9.8c0,0,1.2,0.6,4.6,1.9c0.2,0.1,0.3,0.1,0.5,0.2c3.8,1.4-5.8-6.1-9.2-7.6
				c0,0-16.7-12.8-20.6-17.6c0,0-7.8-10.5-10.1-11.5c0,0,1.1,11.8,2.9,16.2c0,0-3-2.1-4.9-4c0,0,3.3,30.7,6.9,39.4
				c0,0-5.3-1.8-7-4.2c0,0,6,9.9,10.9,16.7c0,0,1.5,3.6-0.8,6.4l-1.7,5.5c0,0,5.4-0.6,6.2,0.9c0,0,2.8,4.2,6.3-0.8l3.5-8
				c0,0,10.1-2.4,12.2-2.2c0,0-5.2-4.3-7.6-4.9c0,0,10-0.9,10.7-0.9c0.7,0.1-0.7-0.1-0.7-0.1s-7-2.1-8.7-2.4c0,0,9.5-5.9,13.3-5.4
				c0,0-4.8-0.7-8.7,0.4c0,0,6.1-5.8,11.3-5.2c0,0,7.2-0.8,12.5-2.2L137.5,103.6z"/>
			<path class="st2" d="M280.9,224.4c9.5,9.3,9.9,19.9,9.9,19.9c-0.8-3.6-10.6-9.7-10.6-9.7c-2.6-2.2-5.2-5.7-5.2-5.7
				c-1.9,8.1-0.3,32.8-0.3,32.8c-4.2-4.6-5.6-23.7-5.6-23.7c-1.2,8.3,1.7,30.9,1.7,30.9c2.3,9.9-0.2,16.7-0.2,16.7l22.8,27.3
				c6-11.5,11.4-38.8,11.4-38.8c1.7,5.9,1.7,13.2,1.7,13.2c5.9-7.6,6.7-33.9,6.7-33.9c4.6,10.7,1.8,19.4,1.8,19.4
				c8.4-10,5-30.7,5-30.7c0.8,3.3,2.3,8.5,2.3,8.5c1.5-4.2,0.2-18.5,0.2-18.5l-5.7-14c-1.2-5.3-12-17-12-17
				c-5.2-17.9-29-27.3-29-27.3c6.1,0.7,18.9,6.4,18.9,6.4c-3.6-3.3-21.4-11.3-21.4-11.3c8.9-0.7,18.9,6.4,18.9,6.4
				c-5.3-7.8-23.1-12.7-23.1-12.7l-6.8-0.8l-12.1-1l-8.9,0.7c-5.7-0.7-15.2,1.8-15.2,1.8c2-0.5,10.5,1.7,10.5,1.7
				c6.5,1.2,13,8.1,13,8.1c3.8,2.6,9.6,9.1,11.6,11.3c-1-0.6-2.4-0.3-2.4-0.3c4.6,3.1,4.2,15,4.2,15c-1.8,2.8-4.1-1.1-4.1-1.1
				c-2.5-3.2-6.8-5.4-6.8-5.4c2.1,1.6,4.7,8.3,4.7,8.3c-2.2-1.9-4.2-1.8-4.2-1.8c3,2.4,3.9,7.8,3.9,7.8c-4.6-0.3-13.8-5.5-13.8-5.5
				c-2.6-2.2-5.3-7.8-5.3-7.8l-3.6,7.1l11.3,6.7c4.8,1.3,21.4,0.9,21.4,0.9c4.6,1.7,9.3,8.6,9.3,8.6
				C277.9,220.6,280.9,224.4,280.9,224.4z M284.3,220.9c0,0-7.9-7.2-10.4-13.2c0,0,9.4,4.4,11.3,5l-2.8-3.2c0,0,4.9,1.5,6,2.3
				c-1-0.9-9.6-7.8-12.1-8.9c0,0-3.4-2.7-4.8-5.5c0,0,5.5,1.1,8.6,4.2c0,0,8.4,4.6,12.6,4.7c0,0-6.5-4-9.3-6.9c0,0-5.2-5.7-11-8.5
				c0,0,11,0.9,12.6,1.9c0,0-3.7-2.6-12.5-7.5c0,0,8.1,0.5,11.6,2.1c0,0-4.9-6.4-8.5-9.2c-0.9-0.6-1.5-1-1.5-1c0.5,0.2,1,0.5,1.5,1
				c3.1,2,10.3,6.8,14.4,10.6c0,0-3.8-5.7-5-6.5c0,0,5.3,1.9,10.1,9.1c0,0,9.3,11.4,10.2,16.7c0,0-10.5-10.7-17.3-13
				c0,0,12.5,8.9,15.7,17.9c0,0,4.8,11.4,4.7,12.5c0,0-10.6-8.3-18.8-8.8c0,0,10.4,5.9,12.7,14.1c0,0-6.8-2.2-10.6-5.2
				C291.7,225.7,287.6,223.2,284.3,220.9z"/>
			<path class="st2" d="M251.9,397.1c21.9-16.3,20-37.7,20-37.7c2.4,7.4-0.7,19.3-0.7,19.3c10.3-13.9,11.2-45.7,11.2-45.7
				c1.7,4.1,1.6,17,1.6,17c12.1-40.4,2.3-52.3,2.3-52.3l-7.7-12.1l-7.4-27.8c1.7,12.2,4.1,26.8,4.1,26.8l-4.9,1.2
				c0.4-2.5-2.5-13.7-2.5-13.7c2.6,11.2-1.9,42.2-1.9,42.2l-0.9-12.7c1.9-8.1-0.2-30.5-0.2-30.5c-0.7-4.1,3.5-23.4,4.5-27.9l-0.4-5
				c-1.9-3.7-2.7-22-2.7-22c-1.2-5.3-8.7-1.4-8.7-1.4c-3.3-2-6.3-4.4-6.3-4.4c-7.1-2.2-9.9-6.7-9.9-6.7c-0.8,1.2-38,14.5-38,14.5
				l-5.3,23.2l10.1,22.3l8.2,18.6l11.7,18.8l20.2,7.8l10.8,6.2l1.1,0.8c0.6-0.1,1.3,0.1,2.1,0.6c0,0,0.4,0.4,0.7,1.4l6.9,4.8
				l-4.7,30.3c-4.8,19.5-19.6,36.6-19.6,36.6L233.6,408c11.3-5.1,22.6-23.7,22.6-23.7C257.5,389.8,251.9,397.1,251.9,397.1z
				 M257.5,312.7c-0.9-5.4,2.1-6,2.1-6c4.7,0.6,3.2,6.2,3.2,6.2C260.2,311,257.5,312.7,257.5,312.7z M215,236.8c0,0,1,13,1.7,15.9
				c0,0-8.3,0.2-10.5-9.3c0,0-3.7-9.9,2.4-14.8C208.5,228.6,213.4,225.3,215,236.8z M255.6,230.7c0,0-2.8-15,3-12.5
				c0,0,6.4,3.4,5.6,19.5c0,0-1.4,9-2.6,8.3C261.7,246,258.8,245.6,255.6,230.7z M249.8,217.5c-2.6-2.2-4.9,1.2-4.9,1.2
				c-1.1,2.7-3.7,1.9-3.7,1.9c-9-4.2-9.1,1.1-9.1,1.1c0.9,0.8-2.7,2-2.7,2c-5.3-5-6.4,2.2-6.4,2.2c-1.4-1.4-6.7-1.9-6.7-1.9
				c2.1-5.7,14.6-7.6,14.6-7.6c4.4,1.1,12.9-3,12.9-3c6.7-2.6,8.4,0.1,8.4,0.1c2.3,2.2,2.8,4.6,2.8,4.6
				C255.1,219.7,249.8,217.5,249.8,217.5z M250.5,239.9c0,0-2.5,1.3-4.4-2.4c0,0-3.6,4-4.6,4.2c0,0-2.9-0.7-4.5-2.8
				c0,0-4.6,4.2-5.4,5.1c0,0-3.3-2-7-4.6c0,0-0.3,6.3-1.7,7.7c0,0-8.2-5.4-6-18.1c0,0,3.5-2.9,6.2-0.1c0,0,3.6-6.8,8.6-2
				c0,0,3.8-8.9,11.5-2.7l1.8-1.1c0,0,3.2-4.2,6,0.3C251.1,223.4,254.4,231.4,250.5,239.9z M262.1,278.9c0,0-1,4.7-4.9,1.5
				c0,0-0.7-5.8,2.4-6.1C259.6,274.3,263.3,275.2,262.1,278.9z M257,291.6c0,0-0.5-7.9,4.4-6.3c0,0,2.1,1.6,2.7,5.6
				C264.2,290.9,262.1,298.4,257,291.6z M262.8,304.1c0,0-1.7-1.3-5.2-1.6c0,0,0.9-5.1,2.7-6.2C260.3,296.4,264.1,296.5,262.8,304.1
				z"/>
			<path class="st2" d="M197.2,288.9c0,0,3.3,11,8.1,21.7c0,0,4.5,8.2,5.7,11.6c0,0,4.4,10.8,5,12.5c0,0,2.5,7.5,11.3,11.7
				c0,0,5.5,3.8,12.3,4.1c0,0,11,0.4,15.7-2.3l12.3-8l7.2-10.7l-0.4-9.6l-12.3-3.8c0,0,1.2,1.1,1,4.6c0,0-2.5-1.8-6.8,3.7
				c0,0,0.3-11.5,5.8-8.3l-7.7-5.4L231.8,300l-4.6-3.8l-15.9-28.5l-3.2-13.6l-17.4,3.8C190.7,258,191.5,273.3,197.2,288.9z
				 M200.3,271.5c0,0-3,2.1-4.1,3.1c0,0-1.1-3.9,1.5-5.7C197.6,268.9,199.2,267.6,200.3,271.5z M254.8,339.8
				c2.9-9.3,8.8-14.8,8.8-14.8c2.3,9.7-5.1,18.8-5.1,18.8C252.4,346.2,254.8,339.8,254.8,339.8z M236,346.1
				c-1.9-7.6-0.2-11.9-0.2-11.9c1.8,0.6,4,3.6,4,3.6c0.6-3.5,2.6-4,2.6-4c1.4,1.3,3.4,3.4,3.4,3.4c0.6-1.3,3-3.7,3-3.7
				c1.1,1.2,1.6,4,1.6,4c0.4-2.2,3.6-3.5,3.6-3.5c0.4,4.5-1.7,10.1-1.7,10.1c-1.8,2.6-3.6,0.9-3.6,0.9c-0.9,1.7-4.4,0.1-4.4,0.1
				c-1.9,2.4-3.9,0.1-3.9,0.1C238.7,348,236,346.1,236,346.1z M229.3,326.1c6.9,8.8,4.7,17.9,4.7,17.9c-2.5,3.1-4.4,0.1-4.4,0.1
				C225.8,336.9,229.3,326.1,229.3,326.1z M218.6,324.9c0,0,2.5-5.9,7.4,2.9c0,0-1,4.4-0.7,7.1C225.4,334.9,217.9,330.7,218.6,324.9
				z M215.1,314.9c3.5-2,5.6,5.9,5.6,5.9c-2.8-1-4.8,4.4-4.8,4.4C211.4,319.9,215.1,314.9,215.1,314.9z M212.6,305
				c0,0,5.3,1.1,4.4,7.8c0,0-4.8-1.7-5.8,3C211.2,315.8,206.2,308.4,212.6,305z M207.7,298.3c2.6-1.5,5.1,5.1,5.1,5.1
				c-2.9-1.6-5.9,3.7-5.9,3.7C203.5,300.9,207.7,298.3,207.7,298.3z M205,289.6c2.7-1.3,4.5,6.1,4.5,6.1c-3.9-1.6-5.2,2.4-5.2,2.4
				C200.5,291.9,205,289.6,205,289.6z M202.4,279.6c0,0,3.6,1.5,3,6.9c0,0-3.4-0.6-4.5,5.5C200.9,292,195.5,284.7,202.4,279.6z
				 M200.9,273c0,0,2.7-0.4,2,4.6c0,0-3.6,0.4-5.6,5.7C197.3,283.3,195.4,277.3,200.9,273z"/>
			<path class="st2" d="M141.6,324.7c0,0-4.7,7.8-5.7,13.4c0,0,6.4-4.3,9.7-6.2c0,0-3.9,5.3-4.7,7.6c0,0,8.4-2.9,10.8-2.5
				c0,0-4.2,7.9-4.6,10.1c0,0,8.7-3.2,14.6-3c0,0-2.6,7.6-2.6,10.6c0,0,5.5-2.2,10-4.7l0.4,8.7c0,0,2.4-3.6,2.5-5
				c0,0,2.6,12.1,4.5,16.1c0,0,1.2-6.8,1.9-6.9c0,0,0.6,8.7-1.4,14.9c0,0,5.9-2.3,10.3-9.6c0,0-0.6,8.3-2.3,15.8c0,0,4-0.9,8.9-7.6
				c0,0-0.9,8.1-3.3,12.6c0,0,7.8-4.2,9.2-6.1c0,0-0.8,9.2-0.9,10.9c0,0,3.7-3,4.4-4c0,0-0.5,6.8-0.9,7.9c0,0,4.3-3.3,5.3-5
				c0,0-0.6,7.3-1,9.7c0,0,4.6-4.3,5.6-5.7c0,0,0.6,5.6,0,8.8c0,0,4.5-7.3,5.4-10.5c0,0,1,7.4,0.3,11.1c0,0,4.5-5.7,6.9-10
				c0,0-0.8,6.4-1.1,9.3c0,0,6.3-5.7,8-8.4c0,0-2.1,6.8-3.9,10.2c0,0,14.4-9.6,15.3-11l9.8-10.4l6.6-9.2l7.1-17l5.9-21.1l-4.9,0.7
				l-7.2,3.8l-6.1,5.6c0,0,1.8,6.5-7.5,8.5c0,0-15,3.3-19.5-7c0,0-0.3-2.2,4.5-1.7l-7.3-6.4l-5.9-7.4l-7.4-13.8c0,0,1.1,6.5-1.8,4.4
				c0,0-15.9-26.2-16.7-42.7c0,0,1.2-2.8,2.2-0.5l-1.9-21.8l-16.5,0.9c0,0-5.2,13.5-14.4,20.5c0,0-3.7,0.9-4.6,1.1
				c-0.9,0.2-0.9,0.2-0.9,0.2s1.2-8.8,3.2-11.9c0,0-25.8,26.2-32.1,46c0,0-2.6,4.8-4.2,7c0,0,11.6-4.8,13.9-7.9
				c0,0-0.9,5.1-5.5,10.3C132.3,326.2,137.3,326.8,141.6,324.7z M214.3,372.7c0,0-2.4-14.3-3.3-20.8l-0.6-4.5c0,0,3.2,4.8,5,7.6
				c0,0-1.1-5.5-1.6-6.8c0,0,6.5,8.9,8.8,11.8c0,0,0-5.1-0.2-5.7c0,0,9.7,8.6,12,9.5c0,0,9.4-0.4,10.5-0.8c0,0,7-3.9,9.1-2.6
				c0,0-0.7,5.7-5.5,15c0,0,1.2-4.7-1.3-6.6c0,0-6,9.1-6.7,14.8c0,0-1.7-10.3-1-16.9c0,0-6.2,14.2-6.2,20c0,0-3.5-13.8-2.8-21.8
				c0,0-2.3,4.2-2.7,8.1c0,0-4.1-3.7-3.9-4.9c0,0-3.4,7.1-3.4,8.4c0,0-1.2-14.1,0-16.7C220.5,359.7,214.2,363.5,214.3,372.7z
				 M179.7,265.5c-0.7,1.1-7.3,9.6-7.3,9.6l4.2-1.7c0.4,6.6-6.1,15.3-6.1,15.3c-3.7,3-16,19.7-16,19.7c2-7.2,6.1-14.4,6.1-14.4
				l-6.7,6C165.6,275.5,179.7,265.5,179.7,265.5z M174.4,300.3c0,0-11.3,15.2-17,20.4C157.4,320.7,162.7,305.8,174.4,300.3z
				 M184.7,277.2c-6.4,14-16.6,22.2-16.6,22.2C172,291.1,184.7,277.2,184.7,277.2z M193.6,365.5c-1.9-9.3-2.6-35.2-2.5-34.4
				c0.5,3.1,3.5,13.1,3.5,13.1l2.2-14.4c3.6,12.4,2.9,38,2.9,38c-2.6-6.3-3.7-17.7-3.7-17.7C194.4,353.1,193.6,365.5,193.6,365.5z
				 M182.6,320.4c2.5,15.4,0.7,30.7,0.7,30.7C179.8,341.2,182.6,320.4,182.6,320.4z M169.8,315.5c4.3-8.2,12.2-25.1,12.2-25.1
				C180.1,306.8,169.8,315.5,169.8,315.5z M157.8,340.1c5.7-4.4,12.4-21.2,12.4-21.2C167.8,336.4,157.8,340.1,157.8,340.1z"/>
			<path class="st2" d="M203.3,153c0,0,1.5,6.6-5.6,4.1c0,0-2.8-1.8-5.5-8.5c0,0-8-11.7-10.8-14.9c0,0,4.9,10.3,6.4,13.8
				c0,0,4.8,11.4,7.9,11.4c0,0-5.2,6.1-10.5-6.2c0,0-8.5-14-11.4-17.5c0,0,3.1,10.4,4.8,13.1c0,0-2.7,2-6.1-0.7
				c0,0-13.3-18.1-16.2-20.2c0,0,4.9,7.5,6.4,9.6c0,0,4.6,7.6,5.7,9.4c0,0-15.5-6.8-18-11.4l0.9,4c0,0-7.3-4.5-9.7-13
				c0,0-0.1,11.5,2.6,17.1c0,0-13.8-6.9-14.8-9.7c0,0,4.5,9,7.5,12.5c0,0-5.7-2.1-15.1,0.8c0,0-5,0.8-10,2c0,0-6.4,0.8-12.6,5.4
				c0,0,7.2-1.7,9.9-0.9c0,0,10.9-0.8,13.3-2.4c0,0,4-0.9,3.4,1.3c0,0-1,3-4.8,3.2c0,0-6.1,0.7-8.2,2.3c0,0-0.8,2.6-7.6,1.8
				c0,0,4.9,3,9.6,0.9c0,0,5.6-2.7,6.1,0.7c0,0,1.1,1.8-5.9,1.7c0,0,2.2,1.9,4.1,2.5c0,0-6.3-0.3-12.1,4.9c0,0,7.3-2.8,17.4-3
				c0,0,0.3,2.7,10.8,0.2c0,0-6.1,0.7-9.3-1.3c0,0,8-2.9,9.8-5.4c0,0,6.5,1.2,11.5,1.8c0,0,9.4,1.6,10,3.9l3.5-1.5
				c0,0-6.6-3-17.1-6.1c0,0-6-2.1,3.6-2.6c0,0,6.7-7.1,15.3-1.5c0,0-3.5-4.7-2.5-6.4c0,0,8.5,5.3,11.9,6.2c0,0,7.2,5.6,10.6,6.6
				c0,0,7.5,5.2,7.9,6.8l8-4.3l6.3-5.7L203.3,153z"/>
			<path class="st2" d="M174.6,172.8c0,0,0.3,5-10.7,4.8c0,0-5.4-0.4-6.8-4.4l-4.1,2.3l-18.4,2.5c0,0-7.6,9.2-14.2,9.8
				c0,0,2.3,2,13.9-5.8c0,0-7,7.9-11.6,7.8c0,0,4.9,4.9,12.6-0.6c0,0-5.3,7-8.8,7.2c0,0,5.7,4.5,14.6-0.9c0,0,0,2.1-2.8,3.7
				c0,0,3.6-0.6,4.1-1.4c0,0-21.6,19.4-22.3,20.5c0,0,20.4-18.7,29.7-20.4l0.9,2.8c0,0,3.5-0.1,4.2,0c0,0-6.8,15.3-18.4,19.4
				c0,0,7.7,1.2,33.8-20c0,0,9.8-7.6,11.1-9.1c0,0-3.1-0.4-5.4-0.4c0,0,5-3.5,10.1-3.5c0,0,4.9-0.7,6.8-1.8c0,0-4.5-1.5-5.9-1.4
				c0,0,7.6-2,8.1-6.1c0,0,0.4-1.3,3.7-2c0,0-6.3-1.3-9.8-1.2L174.6,172.8z"/>
			<path class="st2" d="M133.9,84.3c0,0-7-13.2-19.8-19c0,0-9.7-3.8-20.9-14.1c0,0-12.3-15-19.9-15.5c0,0-6.9,2.1-6.5,13.6
				c0,0-3.6,20.3-1.4,29.8c0,0-2.8,35.4,5.4,67.6c0,0,3.6,16.5-2.9,39.9c0,0-7.1,15.1-8.2,21.2c0,0,6.6-2.7,10.2-3.8l11-8.4
				c0,0-11,3.3-14.9,5.8c0,0,6.9-13.9,26.3-26.1c0,0-12.2-0.8-15.3,1c0,0,4-8.6,12.3-13.8c0,0-5.7,0.4-6.3,0.8
				c0,0,9.7-9.2,14.2-11.7c0,0-6,0.2-8.2-1.3c0,0-9.6-5.2-12.1-25.9c0,0-2-17.6-0.8-31.1c0,0,2.6-28.6,2.2-34.1c0,0,1.2-13.7,9-6.1
				c0,0,13.9,13.7,16.5,16.1c0,0,2.9,3.5,9.5,4c0,0,8.1,0.9,12.4,10.5c0,0,10,16.9,21.3,16.6l6.6,1.5l-8.8-6.7l-10.7-10L133.9,84.3z
				"/>
			<path class="st2" d="M226.7,202.1l-13.3-1.5l-6-0.9c0,0-5.8,4.1,1.4,4.8c0,0-9.8,0.7-12.3,8.7c0,0-6.2,10.3-17,10.7
				c0,0,8.6-13.6,14.4-14.7c0,0-7.5-0.5-13.8,8.3c0,0,2.4-7.7,6.5-11.7c0,0-5.5,3.4-6,4.9c0,0-2.1-3.9,4.7-10.6c0,0-1.2-1.3-3.8,0.4
				c0,0,0.7-5,6.3-5.7c0,0-4.2-1.1-8.1,1.9c0,0,2.3-3.1,4-4.6l-5.8,0.9l-18.6,12.7c0,0,4.5,0.6,7,0.2c0,0-11.3,11-14.2,14.5
				c0,0,2.8,0.3,6.1-0.7c0,0-8.5,9.4-12.2,17c0,0,16-14.9,24.3-17.8c0,0-8.7,15.3-21.4,25.4c0,0,7.2-1.6,21.6-12.6
				c0,0-8.4,14.5-18,19.5c0,0,7.2-0.3,8.3-1.6c0,0-5,6.7-7.2,9.3c0,0,9.7-1.6,14.1-5c0,0-9.6,15.5-17.2,23.1l3.2,3.1
				c0,0,9.3-13.7,21.3-16.1l31.8-5.4l-3.5-19.3l-2.1-6.1l5.6-10.3l35.5-17.7l-8.6-5.6L226.7,202.1z"/>
			<path class="st2" d="M99.7,181.1c0,0-32.1,11.4-39.3,45.7c0,0,9-12.2,12.1-16.4c0,0-6.7,15.8-7.3,19.1c0,0,3.4-4.6,8.9-8
				c0,0-6.3,17.8-7.1,31.9c0,0,4.8-13.6,12.1-19.5c0,0-8.4,21.8-6.9,37.1c0,0,4.5-10.4,6.9-13.4c0,0-0.8,15.8,0,23.6
				c0,0,8.2-18.3,10.8-22c0,0-2.1,23.8-0.5,31.8c0,0,3.6-6.8,6.8-11c0,0,1.3,9.8,2.4,19.2c0,0,7.4-10.1,10.9-14.4
				c0,0-2.7,13.8-2.7,19.7c0,0,5.3-7.1,7.6-12.2c0,0-0.4,8.8-2,16.8c0,0,6.4-11.2,7.3-13.2c0,0-0.9,20-0.6,27.2
				c0,0,4.9-17.8,9.6-24.5c0,0,1.7,7.2,0.7,17.9l26.3-36.1l2.6-11c0,0-10,7.9-16.8,13c0,0,7.6-12.2,9.2-18.5c0,0-5.8,4.8-12.1,10.5
				c0,0,7.1-11.4,8.9-15.3c0,0-17.9,14.3-25.5,17.4c0,0,6.4-14,13.2-22.2c0,0-7.1,5.1-11.6,9.7c0,0,3.4-7.7,5.4-11
				c0,0-12,9.4-16.9,15.4c0,0,4.6-24.7,16.5-34.8c0,0-20.7,17-27.9,51.4c0,0,0.9-16.9,2-21.3c0,0-6,10.1-8.8,16
				c0,0,2.7-27.1,18.7-43.3c0,0-16.2,15.3-19.7,25.5c0,0,1.9-15.4,8.7-25c0,0-9.3,10.5-13.2,19.1c0,0,3.8-20.7,17.1-32.2
				c0,0-12.1,9.1-23.4,33.6c0,0,0.6-25.5,27.6-54.1c0,0-10.1,7.2-13.4,11.1c0,0,6.9-12,25.6-24.1c0,0-20.1,7.8-41.9,39
				c0,0,3.7-10.9,7.9-16.8c0,0-6.4,2.2-9.1,4.2c0,0,10.6-18.5,27.5-24.9c0,0-17.7,5.9-30.7,20.4c0,0,5.7-11.1,7.9-13.7
				c0,0-7.4,3.8-12.4,8.1C71.4,206.9,86.7,189.3,99.7,181.1z"/>
			<path class="st2" d="M158.4,144.7c0,0,35.2,20.8,36,26.4c0.8,5.6-38.4-1.6-38.4-1.6l-13.6,11.2c0,0-6.4-4-14.4-2.4
				c-8,1.6-8-2.4-8-2.4l6.4-8.5l2.5-6.8L158.4,144.7z"/>
		</g>
	</g>
	<rect x="55" y="259.9" class="st2" width="285.8" height="45.4"/>
	<g>
		<g>
			<path class="st3" d="M59.9,279.8l6.7,0l0,4.3l-6.7,0l0,12.4l-5.2,0l0-29.9l13.7,0l0,4.3l-8.5,0L59.9,279.8z"/>
			<path class="st3" d="M80.6,266.5l0,23.1c0,2.1,1,2.9,2.7,2.9s2.7-0.8,2.7-2.9l0-23.1l4.9,0l0,22.8c0,4.8-2.6,7.5-7.7,7.5
				s-7.7-2.7-7.7-7.5l0-22.8L80.6,266.5z"/>
			<path class="st3" d="M109.8,296.4c-0.3-0.8-0.5-1.2-0.5-3.7l0-4.7c0-2.8-1-3.8-3.4-3.8l-1.8,0l0,12.2l-5.2,0l0-29.9l7.8,0
				c5.4,0,7.7,2.3,7.7,6.9l0,2.4c0,3.1-1.1,5.1-3.4,6.1c2.6,1,3.4,3.3,3.4,6.4l0,4.6c0,1.5,0,2.5,0.6,3.6L109.8,296.4z M104.2,270.8
				l0,9.2l2,0c1.9,0,3.1-0.8,3.1-3.2l0-2.9c0-2.1-0.8-3.1-2.6-3.1L104.2,270.8z"/>
			<path class="st3" d="M122.6,266.5l5.2,0l0,29.9l-5.2,0L122.6,266.5z"/>
			<path class="st3" d="M135.8,273.7c0-4.8,2.8-7.5,7.9-7.5c5.1,0,7.8,2.7,7.8,7.5l0,15.6c0,4.8-2.8,7.5-7.9,7.5
				c-5.1,0-7.8-2.7-7.8-7.5L135.8,273.7z M141,289.6c0,2.1,1,3,2.7,3c1.6,0,2.7-0.8,2.7-2.9l0-16.2c0-2.1-1-2.9-2.7-3
				c-1.6,0-2.7,0.8-2.7,2.9L141,289.6z"/>
			<path class="st3" d="M164.5,266.6l0,23.1c0,2.1,1,2.9,2.7,2.9c1.6,0,2.7-0.8,2.7-2.9l0-23.1l4.9,0l0,22.8c0,4.8-2.6,7.5-7.7,7.5
				s-7.7-2.7-7.7-7.5l0-22.8L164.5,266.6z"/>
			<path class="st3" d="M190,266.3c5,0,7.6,2.7,7.6,7.5l0,0.9l-4.9,0l0-1.2c0-2.1-0.9-2.9-2.6-3s-2.6,0.8-2.6,2.9
				c0,6.2,10.1,7.3,10.1,15.9c0,4.8-2.6,7.5-7.7,7.5c-5.1,0-7.7-2.7-7.7-7.5l0-1.8l4.9,0l0,2.1c0,2.1,1,2.9,2.7,2.9
				c1.6,0,2.7-0.8,2.7-2.9c0-6.2-10.1-7.3-10.1-15.9C182.3,269,184.9,266.3,190,266.3z"/>
			<path class="st3" d="M226,296.6l-5,0l-4.5-29.9l3.6,0l3.8,25.5l3.7-25.4l3.6,0l3.6,25.5l3.7-25.5l3.2,0l-4.5,29.9l-4.8,0
				l-3.1-20.3L226,296.6z"/>
			<path class="st3" d="M249.1,273.9c0-4.6,2.5-7.5,7.5-7.5c5.1,0,7.6,3,7.6,7.5l0,15.5c0,4.5-2.5,7.5-7.6,7.5c-5,0-7.5-3-7.5-7.5
				L249.1,273.9z M252.7,289.5c0,2.7,1.3,4.3,3.9,4.3c2.7,0,3.9-1.6,3.9-4.3l0-15.8c0-2.7-1.2-4.3-3.9-4.3c-2.6,0-3.9,1.6-3.9,4.3
				L252.7,289.5z"/>
			<path class="st3" d="M272.3,296.6l0-29.9l3.7,0l0,26.9l9.4,0l0,3L272.3,296.6z"/>
			<path class="st3" d="M295.7,266.7l5.3,26l5.3-26l3.4,0l-6.2,29.9l-5.4,0l-6.2-29.9L295.7,266.7z"/>
			<path class="st3" d="M329,280l0,3l-8,0l0,10.6l9.9,0l0,3l-13.5,0l0-29.9l13.5,0l0,3l-9.9,0l0,10.2L329,280z"/>
			<path class="st3" d="M353.1,273.9l0,0.8l-3.5,0l0-1c0-2.7-1.1-4.3-3.8-4.3c-2.6,0-3.8,1.6-3.8,4.2c0,6.7,11,7.4,11,15.8
				c0,4.5-2.4,7.5-7.4,7.5s-7.4-3-7.4-7.5l0-1.7l3.4,0l0,1.9c0,2.7,1.2,4.3,3.9,4.3s3.9-1.6,3.9-4.3c0-6.7-11-7.3-11-15.7
				c0-4.6,2.4-7.5,7.3-7.5C350.8,266.5,353.1,269.4,353.1,273.9z"/>
		</g>
	</g>
</g>
</svg>
