<svg id="Capa_1" data-name="Capa 1" xmlns="http://www.w3.org/2000/svg" viewBox="0 0 28.1 28.1"><defs><style>.cls-1{fill:#0190e9;}</style></defs><path class="cls-1" d="M14.05,0A14.05,14.05,0,1,0,28.1,14.05a14,14,0,0,0-14-14m7.32,11.52A9.22,9.22,0,0,1,7.2,19.7,6.56,6.56,0,0,0,12,18.36a3.27,3.27,0,0,1-3-2.25,3.29,3.29,0,0,0,1.47-.06,3.23,3.23,0,0,1-2.6-3.21,3.32,3.32,0,0,0,1.47.4,3.24,3.24,0,0,1-1-4.32A9.19,9.19,0,0,0,15,12.3a3.24,3.24,0,0,1,5.52-3,6.62,6.62,0,0,0,2.05-.79,3.21,3.21,0,0,1-1.42,1.79A6.49,6.49,0,0,0,23,9.84a6.47,6.47,0,0,1-1.62,1.68"/></svg>