<svg id="Capa_1" data-name="Capa 1" xmlns="http://www.w3.org/2000/svg" viewBox="0 0 28.1 28.1"><defs><style>.cls-1{fill:#0190e9;}</style></defs><path class="cls-1" d="M14.23,6.58a6.7,6.7,0,0,0-6.67,6c0,.21,0,.43,0,.65a6.61,6.61,0,0,0,1.27,3.9L8,19.61l2.57-.82a6.72,6.72,0,0,0,10.4-5.55c0-.18,0-.35,0-.52a6.7,6.7,0,0,0-6.69-6.14M18.15,16a2,2,0,0,1-1.32.93c-.36,0-.36.29-2.35-.49a8,8,0,0,1-3.34-2.93,4.6,4.6,0,0,1-.7-1.34,2.51,2.51,0,0,1-.1-.66A2.15,2.15,0,0,1,11,9.87a.71.71,0,0,1,.52-.25l.37,0c.12,0,.28-.07.44.32s.56,1.35.61,1.44a.34.34,0,0,1,0,.34,2.68,2.68,0,0,1-.12.24l-.07.09c-.1.11-.21.25-.3.34s-.19.2-.08.39a6,6,0,0,0,1.08,1.35,5.38,5.38,0,0,0,1.58,1c.2.1.31.08.42,0a8.77,8.77,0,0,0,.62-.76c.13-.19.26-.16.44-.09s1.14.53,1.34.63.33.14.37.22a1.6,1.6,0,0,1-.11.92"/><path class="cls-1" d="M14.05,0A14.05,14.05,0,1,0,28.1,14.05a14,14,0,0,0-14-14m.18,21.16a8,8,0,0,1-3.85-1L6,21.57,7.4,17.33a7.91,7.91,0,0,1-1.14-4.09v-.35a8,8,0,0,1,16,.15v.2a8,8,0,0,1-8,7.92"/></svg>